<?xml version="1.0" encoding="utf-8"?>
<!-- Generator: Adobe Illustrator 25.2.0, SVG Export Plug-In . SVG Version: 6.00 Build 0)  -->
<svg version="1.1" id="Layer_1" xmlns="http://www.w3.org/2000/svg" xmlns:xlink="http://www.w3.org/1999/xlink" x="0px" y="0px"
	 viewBox="0 0 676.3 646.5" style="enable-background:new 0 0 676.3 646.5;" xml:space="preserve">
<style type="text/css">
	.Arched_x0020_Green{fill:url(#SVGID_1_);stroke:#FFFFFF;stroke-width:0.25;stroke-miterlimit:1;}
	.st0{fill-rule:evenodd;clip-rule:evenodd;fill:#FFFFFF;}
	.st1{fill:#2E3192;}
	.st2{clip-path:url(#SVGID_3_);fill-rule:evenodd;clip-rule:evenodd;fill:#2E3192;}
	.st3{fill:#FFFFFF;}
	.st4{fill-rule:evenodd;clip-rule:evenodd;fill:#2E3192;}
</style>
<linearGradient id="SVGID_1_" gradientUnits="userSpaceOnUse" x1="-86.6875" y1="614.7344" x2="-85.9804" y2="614.0273">
	<stop  offset="0" style="stop-color:#20AC4B"/>
	<stop  offset="0.9831" style="stop-color:#19361A"/>
</linearGradient>
<g>
	<path class="st0" d="M337.8,61.3c33.4,27.4,74.1,45.7,134.9,39.4c9.4,22.8,23.4,38.5,47.3,49.7c-25.2,29.6-46.5,67.7-50.3,109.8
		c-0.6,7.2-10.5,14.5-10.1,21.8c0.3,5.3,10.7,10.6,11.6,16c1.7,9.8,4.5,19.8,8.5,29.9c27.3,67.9,40.8,88.3,17.4,126.2
		c-40.1,43.8-112.1,30.7-159.3,88.3c-47.2-57.6-119.2-44.6-159.3-88.3c-23.4-37.9-9.9-58.3,17.4-126.2c4.2-10.4,7-20.8,8.7-31
		c1.1-6.8,22-5.4,22.1-12c0.1-4-20.2-16.1-20.5-20c-2.6-43.9-24.5-83.8-50.6-114.5c24.6-11.5,39.4-27.6,47.3-49.7
		C263.7,107,304.4,88.6,337.8,61.3L337.8,61.3z"/>
	<path class="st1" d="M339.2,59.5c16.5,13.5,34.8,24.8,56.4,31.9c21.7,7.1,46.7,10.1,76.8,7l1.7-0.2l0.6,1.5
		c4.6,11.1,10.3,20.5,17.8,28.5c7.5,8,16.7,14.5,28.4,20l2.6,1.2l-1.9,2.2c-13.3,15.7-25.6,33.8-34.6,53.6
		c-7.9,17.2-13.4,35.7-15.1,55c-0.4,3.9-2.9,7.6-5.4,11.2c-2.4,3.6-4.9,7.1-4.7,10.3c0.1,1.9,2.6,4.3,5.1,6.7c2.9,2.9,5.9,5.7,6.4,9
		c0.9,4.9,2,9.8,3.4,14.8c1.4,4.9,3.1,9.7,5,14.6c3.2,8.1,6.2,15.2,8.9,21.8c21.3,51.8,29.6,71.9,8.3,106.4l-0.3,0.3
		c-18.9,20.6-44.4,28.8-71.1,37.4c-30.7,9.9-63.1,20.3-88.1,50.8l-1.7,2.1l-1.7-2.1c-25-30.6-57.4-41-88.1-50.8
		c-26.7-8.6-52.3-16.8-71.1-37.4l-0.3-0.3c-21.3-34.4-13-54.6,8.3-106.4c2.7-6.6,5.6-13.7,8.9-21.8c2-5.1,3.7-10.1,5.2-15.2
		c1.5-5.2,2.6-10.3,3.4-15.4c0.8-4.8,7-6.3,13-7.8c4.6-1.1,9-2.2,9.1-3.8c0-0.9-4.8-4.7-9.6-8.5c-5.4-4.2-10.7-8.4-10.9-11.4
		c-1.2-20.1-6.5-39.3-14.4-57.2c-9.2-20.7-21.8-39.7-35.7-55.9l-1.9-2.2l2.6-1.2c12-5.6,21.7-12.4,29.2-20.4
		c7.6-8,13.1-17.3,16.9-28l0.6-1.7l1.7,0.2c30,3.1,55.1,0.1,76.8-7c21.7-7.1,40-18.4,56.5-31.9l1.4-1.2L339.2,59.5L339.2,59.5z
		 M394.3,95.7c-21.6-7.1-39.9-18.2-56.5-31.6c-16.5,13.3-34.9,24.5-56.5,31.6c-21.8,7.2-46.9,10.3-76.9,7.4
		c-4,10.6-9.7,19.9-17.3,27.9c-7.4,7.8-16.6,14.5-28,20.1c13.4,16.1,25.6,34.6,34.5,54.8c8.1,18.3,13.5,38.1,14.8,58.8
		c0.1,0.9,4.6,4.5,9.2,8.1c5.6,4.4,11.3,8.9,11.3,12.1c-0.1,5-6.2,6.6-12.5,8.1c-4.6,1.1-9.4,2.3-9.7,4.2c-0.9,5.3-2,10.6-3.5,15.9
		c-1.5,5.2-3.2,10.4-5.3,15.6c-3.1,7.7-6.1,15.1-8.9,21.9c-20.6,50.2-28.7,69.7-8.7,102.2c18,19.6,42.9,27.6,69,36
		c30.6,9.8,62.9,20.2,88.5,50.2c25.6-30,57.8-40.4,88.5-50.2c26.1-8.4,51-16.4,69-36c19.9-32.4,11.9-51.9-8.7-102.2
		c-2.8-6.8-5.8-14.2-8.9-21.9c-2-5-3.7-10.1-5.2-15c-1.5-5.1-2.6-10.2-3.5-15.3c-0.3-1.9-2.7-4.3-5.2-6.6c-3.1-3.1-6.2-6.1-6.5-9.7
		c-0.3-4.7,2.6-8.9,5.5-13.1c2.2-3.2,4.3-6.3,4.6-9.1c1.8-19.8,7.4-38.8,15.5-56.4c8.8-19.3,20.6-36.9,33.4-52.4
		c-11-5.5-19.9-12-27.2-19.7c-7.5-8-13.3-17.4-18-28.3C441.3,106,416.1,102.9,394.3,95.7L394.3,95.7z"/>
	<g>
		<defs>
			<path id="SVGID_2_" d="M338.2,523.9l-0.2,0.1c-42.8-44.9-112.7-42.1-142.8-70.7c-30-28.6-6.8-68.7,14.2-123.2
				c21-54.5,12.9-118.7-33.7-174.2c16.3-12.3,28.8-25,34.6-39.4c48.9,0.6,91.2-12.4,127.5-37v-0.1l0,0l0,0v0.1
				c36.3,24.6,78.5,37.6,127.4,37c5.7,14.4,18.3,27.2,34.6,39.4c-48,54.3-55.7,118.5-33.7,174.2c22,55.7,44.2,94.6,14.2,123.2
				C450.4,482,381.1,479,338.2,523.9L338.2,523.9z"/>
		</defs>
		<use xlink:href="#SVGID_2_"  style="overflow:visible;fill-rule:evenodd;clip-rule:evenodd;fill:#FFFFFF;"/>
		<clipPath id="SVGID_3_">
			<use xlink:href="#SVGID_2_"  style="overflow:visible;"/>
		</clipPath>
		<polygon class="st2" points="227.1,32.1 210.1,32.1 210.1,571.5 227.1,571.5 227.1,32.1 		"/>
		<polygon class="st2" points="261.2,32.1 244.1,32.1 244.1,571.5 261.2,571.5 261.2,32.1 		"/>
		<polygon class="st2" points="295.2,32.1 278.2,32.1 278.2,571.5 295.2,571.5 295.2,32.1 		"/>
		<polygon class="st2" points="329.3,32.1 312.3,32.1 312.3,571.5 329.3,571.5 329.3,32.1 		"/>
		<polygon class="st2" points="363.4,32.1 346.3,32.1 346.3,571.5 363.4,571.5 363.4,32.1 		"/>
		<polygon class="st2" points="397.5,32.1 380.4,32.1 380.4,571.5 397.5,571.5 397.5,32.1 		"/>
		<polygon class="st2" points="431.5,32.1 414.5,32.1 414.5,571.5 431.5,571.5 431.5,32.1 		"/>
		<polygon class="st2" points="465.6,32.1 448.6,32.1 448.6,571.5 465.6,571.5 465.6,32.1 		"/>
		<polygon class="st2" points="499.7,32.1 482.6,32.1 482.6,571.5 499.7,571.5 499.7,32.1 		"/>
		<polygon class="st2" points="193,32.1 176,32.1 176,571.5 193,571.5 193,32.1 		"/>
	</g>
	<path class="st1" d="M339.3,525.9l-0.2,0.1l0,0c-1,0.6-2.2,0.4-2.9-0.5c-23.7-24.8-55.9-34.8-84.9-43.9
		c-23.1-7.2-44.2-13.8-57.7-26.7c-26.9-25.6-13.2-59.2,4.7-103.3c3-7.3,6-14.8,8.9-22.3c10.7-27.7,13.7-58,7.9-88.3
		c-5.5-28.5-18.9-57-41.2-83.6h0c-0.8-0.9-0.7-2.3,0.3-3.1c0.1-0.1,0.1-0.1,0.2-0.1c8-6,15.1-12.2,20.8-18.6
		c5.7-6.3,10.2-12.9,12.9-19.8l2.1,0.8l-2.1-0.8c0.4-0.9,1.3-1.5,2.3-1.4c24.2,0.3,46.7-2.8,67.6-9c20.8-6.1,40.2-15.4,58-27.4
		c0.4-0.4,1-0.7,1.6-0.7h0.1c0.6,0,1.2,0.2,1.6,0.7c17.9,12.1,37.2,21.3,58,27.4c21,6.2,43.6,9.3,67.8,9v0c1,0,1.9,0.7,2.2,1.6
		c2.8,6.9,7.2,13.4,12.9,19.6c5.8,6.4,12.9,12.6,20.9,18.6l-1.3,1.8l1.3-1.8c1,0.7,1.2,2.1,0.4,3.1c-0.1,0.1-0.1,0.2-0.2,0.3
		c-22.8,25.9-36.4,54-41.9,82.4c-5.9,30.3-2.5,60.9,8.8,89.3c3,7.6,5.8,14.3,8.4,20.7c18.8,45.6,32.5,78.9,5.3,104.9
		c-13.5,12.9-34.5,19.4-57.5,26.6c-28.9,9-61,19.1-84.7,43.9l-1.6-1.5l1.6,1.5C339.7,525.7,339.5,525.8,339.3,525.9L339.3,525.9z
		 M252.7,477.4c28.9,9,61,19.1,85.3,43.6c24.3-24.6,56.3-34.6,85.2-43.6c22.5-7,42.9-13.4,55.7-25.6c25.1-23.9,11.8-56-6.3-100
		c-2.8-6.8-5.8-14-8.4-20.8c-11.5-29.2-15-60.6-9-91.8c5.5-28.5,19-56.8,41.5-82.8c-7.4-5.7-14.1-11.6-19.6-17.8
		c-5.7-6.3-10.2-12.8-13.2-19.8c-24.1,0.2-46.6-3-67.6-9.2c-21-6.2-40.4-15.4-58.4-27.4c-18,12-37.5,21.2-58.4,27.4
		c-21,6.2-43.5,9.3-67.6,9.2c-3,6.9-7.5,13.5-13.2,19.8c-5.6,6.1-12.2,12-19.7,17.8c21.9,26.7,35.1,55.3,40.6,83.9
		c6,31.2,2.9,62.3-8.1,90.8c-3.1,8-6.1,15.3-8.9,22.3c-17.3,42.5-30.5,74.9-5.8,98.4C209.5,463.9,230.1,470.3,252.7,477.4
		L252.7,477.4z M467.5,116c0.1,0.2,0.1,0.4,0.1,0.6L467.5,116L467.5,116z"/>
	<path class="st3" d="M385.5,452.8l0.1-0.1c0.1-0.2,0.2-0.4,0.4-0.6c0.9-0.9,2.3-0.9,3.2-0.1l-1.6,1.6l1.6-1.6
		c0.7,0.7,1.5,1.2,2.2,1.7c0.8,0.5,1.6,0.9,2.4,1.1c1,0.3,1.9,0.5,2.7,0.5c0.8,0,1.4-0.1,1.9-0.3c0.2-0.1,0.4-0.2,0.6-0.4
		c0.1,0,0.1-0.1,0.1-0.1l1.2,1.9l-1.2-1.9c0.3-0.2,0.5-0.4,0.7-0.6c0.2-0.2,0.4-0.4,0.6-0.6c0.1-0.2,0.3-0.3,0.4-0.5
		c0.2-0.3,0.4-0.5,0.6-0.7l1.3,1.8l-1.3-1.8c0.5-0.4,1-0.8,1.3-1.3c0.4-0.5,0.7-1,0.9-1.5c0.2-0.5,0.3-1.1,0.4-1.6
		c0-0.5,0-1-0.1-1.5c-0.2-0.6-0.1-1.4,0.3-2v0c0.1-0.1,0.1-0.2,0.2-0.3l0.1-0.1l0,0l0,0l0,0c0-0.1,0.1-0.2,0.1-0.2l0-0.1h0v0h0
		l0-0.1l0,0l0,0c0.1-0.2,0.2-0.4,0.4-0.6c0.8-0.9,2.2-1.1,3.1-0.3l-1.4,1.7l1.4-1.7c0.9,0.7,1.8,1.3,2.7,1.8c1,0.5,2,0.8,2.9,1
		c1.1,0.2,2.1,0.2,3,0.1c0.8-0.1,1.4-0.3,1.8-0.5l0.1-0.1v0c0.3-0.2,0.5-0.4,0.7-0.6c0.2-0.2,0.4-0.4,0.6-0.7
		c0.2-0.2,0.4-0.5,0.5-0.7c0.1-0.2,0.2-0.4,0.3-0.6c0.1-0.3,0.3-0.5,0.5-0.8l1.6,1.6l-1.5-1.6c0.5-0.5,0.8-1,1.1-1.5
		c0.3-0.5,0.5-1.1,0.6-1.7c0.1-0.5,0.1-1.1,0.1-1.6c-0.1-0.4-0.2-0.9-0.3-1.3c-0.3-0.6-0.4-1.4,0-2l0.1,0l0,0l-0.1,0
		c0.1-0.1,0.1-0.2,0.2-0.3c0-0.1,0-0.1,0.1-0.2l0.1,0l0,0l-0.1,0c0-0.1,0.1-0.2,0.1-0.4l0-0.1l0,0l0-0.1l0-0.1l0,0l0-0.2
		c0-0.2,0.1-0.4,0.2-0.7c0.6-1.1,1.9-1.5,3-0.9l0,0c1,0.5,1.9,0.9,2.9,1.1c1,0.3,2,0.4,2.9,0.4c1.2,0,2.3-0.1,3.2-0.4
		c0.9-0.3,1.5-0.6,1.9-1.1c0.2-0.2,0.4-0.5,0.6-0.7c0.2-0.2,0.3-0.5,0.4-0.7c0-0.1,0.1-0.1,0.1-0.2c0.1-0.2,0.2-0.5,0.3-0.7
		c0.1-0.2,0.1-0.5,0.2-0.6c0-0.3,0.2-0.6,0.3-0.9h0c0.3-0.5,0.6-1.1,0.8-1.7c0.2-0.6,0.2-1.2,0.2-1.8c0-0.5-0.1-1.1-0.3-1.5
		c-0.1-0.4-0.3-0.8-0.6-1.2c-0.5-0.5-0.7-1.3-0.5-2h0c0.1-0.3,0.1-0.5,0.1-0.8c0-0.2,0-0.5,0-0.7l0-0.1h0.1v0h-0.1
		c0-0.1,0-0.2,0-0.3l0-0.1l0,0l0,0l0,0c0-0.1,0-0.2-0.1-0.4c-0.1-0.3-0.1-0.6-0.1-0.9c0.2-1.2,1.3-2.1,2.5-1.9l-0.3,2.2l0.3-2.2
		c1.1,0.1,2.1,0.2,3.1,0.1c1-0.1,2-0.3,2.9-0.6c1.1-0.4,2.1-0.9,2.8-1.5c0.7-0.5,1.1-1.1,1.3-1.6c0.1-0.3,0.2-0.6,0.3-0.8
		c0.1-0.3,0.1-0.6,0.2-0.9c0-0.3,0.1-0.6,0-0.9c0-0.2,0-0.4,0-0.6c-0.1-0.3-0.1-0.6,0-1l2.2,0.4l-2.2-0.4c0.1-0.6,0.2-1.3,0.1-1.9
		c-0.1-0.6-0.2-1.2-0.4-1.7c-0.2-0.5-0.5-0.9-0.8-1.4c-0.3-0.4-0.6-0.7-1-0.9c-0.6-0.3-1.1-0.9-1.2-1.7l2.2-0.3l-2.2,0.3
		c-0.1-0.5-0.2-0.9-0.4-1.3c-0.2-0.4-0.4-0.8-0.6-1.1c-0.3-0.4-0.6-0.7-1-1c-0.4-0.3-0.8-0.5-1.2-0.7c-0.4-0.2-0.9-0.3-1.4-0.3
		c-0.5,0-1,0-1.5,0.1c-0.4,0.1-0.9,0.3-1.3,0.4c-0.4,0.2-0.8,0.4-1.1,0.7c-0.5,0.5-1.2,0.7-1.9,0.6l0,0c-0.5-0.1-1.1-0.1-1.6,0
		c-0.6,0.1-1.1,0.2-1.6,0.5c-0.5,0.2-1.1,0.6-1.6,1c-0.4,0.4-0.8,0.9-1.2,1.4c-0.1,0.2-0.3,0.5-0.6,0.6l-1.4-1.8l1.4,1.8
		c-0.2,0.2-0.4,0.4-0.6,0.6c-0.2,0.2-0.4,0.4-0.6,0.7c-0.2,0.2-0.3,0.4-0.4,0.6l-0.1,0.1h0l0,0l0,0c-0.1,0.2-0.2,0.4-0.3,0.7
		l-0.1,0.1l0,0c-0.2,0.4-0.2,0.9-0.2,1.5l0,0.1l0,0c0.1,0.7,0.2,1.5,0.6,2.4c0.2,0.5,0.5,1.1,0.9,1.6c0.3,0.5,0.7,0.9,1.1,1.4
		c0.6,0.6,0.9,1.6,0.5,2.4c-0.4,1.1-1.8,1.7-2.9,1.3v0c-0.4-0.1-0.8-0.3-1.2-0.3c-0.4-0.1-0.9-0.1-1.3,0c-0.6,0.1-1.2,0.2-1.8,0.4
		c-0.6,0.2-1.1,0.5-1.6,0.8c-0.2,0.2-0.5,0.4-0.8,0.5l-0.7-2.1l0.7,2.1c-0.3,0.1-0.6,0.2-0.8,0.3c-0.3,0.1-0.5,0.3-0.8,0.4
		c-0.2,0.2-0.5,0.3-0.8,0.5c-0.2,0.2-0.4,0.3-0.5,0.5c-0.1,0.1-0.1,0.2-0.2,0.2c-0.2,0.3-0.4,0.7-0.6,1.1c0,0,0,0.1-0.1,0.1
		l-2.1-0.7l2.1,0.7c-0.2,0.6-0.3,1.4-0.3,2.2c0,0.6,0.1,1.3,0.2,2c0.1,0.6,0.3,1.3,0.6,1.9c0.1,0.2,0.2,0.5,0.2,0.8
		c0.1,1.2-0.8,2.3-2.1,2.4v0h0l0,0l-0.1,0l-0.1,0l0,0h0l0,0l-0.1,0c-0.6,0.1-1.3-0.1-1.8-0.6l1.3-1.4l-1.3,1.4
		c-0.4-0.4-0.8-0.6-1.3-0.8c-0.5-0.2-1-0.4-1.6-0.5c-0.6-0.1-1.2-0.1-1.9,0c-0.6,0.1-1.2,0.3-1.8,0.5c-0.3,0.1-0.5,0.2-0.8,0.2
		l-0.2-2.2l0.2,2.2c-0.2,0-0.5,0.1-0.9,0.1c-0.3,0.1-0.6,0.1-0.9,0.2c-0.3,0.1-0.6,0.2-0.9,0.4c-0.3,0.1-0.5,0.3-0.8,0.5
		c-0.4,0.2-0.7,0.6-1,1.2c-0.4,0.6-0.6,1.3-0.8,2.1c-0.2,0.6-0.2,1.3-0.3,2c0,0.6,0,1.3,0.1,2.1c0.1,0.3,0.1,0.5,0,0.8
		c-0.2,1.2-1.3,2.1-2.5,1.9l0,0l-0.3,0l-0.2,0c-0.7,0-1.3-0.3-1.7-0.8l1.4-1.1l0,0l-1.4,1.1c-0.3-0.4-0.7-0.8-1.1-1
		c-0.5-0.3-1-0.5-1.5-0.7c-0.6-0.2-1.2-0.3-1.9-0.3c-0.6,0-1.2,0.1-1.9,0.3c-0.3,0.1-0.5,0.1-0.8,0.1l0,0c-0.3,0-0.6,0-0.9,0
		c-0.3,0-0.5,0-0.8,0.1l-0.1,0l-0.4-2.2l0.4,2.2c-0.3,0.1-0.6,0.1-0.9,0.2c-0.3,0.1-0.6,0.2-0.9,0.3c-0.4,0.2-0.9,0.6-1.3,1.2
		c-0.5,0.6-0.9,1.4-1.2,2.3c-0.2,0.7-0.4,1.4-0.5,2.3c-0.1,0.7-0.1,1.5,0,2.3c0.1,0.3,0.1,0.6,0,0.8c-0.2,1.2-1.4,2-2.6,1.8v0
		c-0.7-0.1-1.3-0.5-1.7-1.1l1.8-1l-1.8,1c-0.2-0.4-0.6-0.8-0.9-1.2c-0.4-0.4-0.9-0.7-1.4-0.9c-0.5-0.2-1.1-0.4-1.7-0.5l-0.1,0v0
		c-0.6-0.1-1.2-0.1-1.8,0c-0.3,0.1-0.6,0.1-0.9,0v0c-0.2-0.1-0.5-0.1-0.8-0.1c-0.3,0-0.5,0-0.8,0l-0.1,0l-0.1-2.2l0.1,2.2
		c-0.3,0-0.6,0-0.9,0.1c-0.3,0-0.5,0.1-0.8,0.2l-0.1,0l0,0c-0.6,0.2-1.2,0.6-1.8,1.2c-0.7,0.7-1.3,1.6-1.7,2.7
		c-0.4,0.9-0.6,1.9-0.8,3c-0.1,1-0.1,2,0,3.1c0.2,1-0.3,2-1.2,2.5l-1-2l1,2c-2,0.9-3.9,2-5.7,3.3c-1.8,1.3-3.5,2.8-5.2,4.5
		c-1.7,1.8-3.3,3.9-4.8,6.3c-1.4,2.3-2.8,5-4,8v5.9c0.7-1.4,1.4-2.7,2.1-3.9c1.9-3.1,3.9-5.9,6.1-8.2c2.1-2.3,4.4-4.3,6.7-6
		c2.3-1.7,4.7-3.1,7.1-4.3c0.9-0.5,2-0.4,2.8,0.3l0,0c0.5,0.5,1.1,1,1.7,1.4c0.1,0,0.1,0.1,0.1,0.1l0,0c0.7,0.4,1.3,0.8,2,1
		c0.8,0.3,1.5,0.5,2.2,0.6c0.6,0.1,1.1,0,1.6-0.1c0.3-0.1,0.6-0.2,0.9-0.3c0.3-0.1,0.6-0.3,0.8-0.5c0.3-0.2,0.5-0.3,0.7-0.5
		c0.2-0.2,0.3-0.3,0.5-0.5c0.2-0.2,0.4-0.4,0.7-0.6l1,2l-1-2c0.6-0.3,1.1-0.7,1.6-1.1c0.4-0.4,0.8-0.8,1.1-1.3l0.1-0.1l1.9,1.1
		l-1.9-1.1c0.3-0.5,0.5-1,0.6-1.5c0.1-0.5,0.1-0.9,0.1-1.4c-0.1-0.7,0.1-1.4,0.6-1.9l0,0h0l0,0l0.2-0.2c0,0,0.1-0.1,0.1-0.1l0,0
		c0.1-0.2,0.2-0.3,0.3-0.3L385.5,452.8L385.5,452.8L385.5,452.8L385.5,452.8z M388.5,457.2c0,0.2-0.1,0.5-0.1,0.7
		c-0.2,1-0.6,1.9-1.1,2.8l0,0c0,0.1-0.1,0.1-0.1,0.2c-0.5,0.8-1.1,1.6-1.9,2.3c-0.7,0.6-1.4,1.2-2.3,1.6c-0.2,0.2-0.5,0.5-0.8,0.7
		c-0.4,0.3-0.8,0.6-1.2,0.8c-0.4,0.3-0.9,0.5-1.3,0.7c-0.4,0.2-0.9,0.4-1.4,0.5c-1,0.3-2.1,0.4-3.3,0.3c-1.1-0.1-2.2-0.4-3.4-0.8
		c-0.9-0.4-1.9-0.9-2.8-1.5l1.2-1.9l-1.2,1.9c-0.1,0-0.1-0.1-0.2-0.1c-0.4-0.2-0.7-0.5-1.1-0.8c-1.8,1-3.6,2.1-5.4,3.4
		c-2.1,1.5-4.2,3.3-6.1,5.4c-2,2.1-3.8,4.6-5.5,7.5c-1.7,2.9-3.3,6.2-4.6,10L344,490l2.1,0.8c-0.4,1.1-1.5,1.7-2.6,1.4l-1.3-0.2
		l0.1-0.5l0,0l-0.1,0.5c-1.1-0.2-1.9-1.2-1.8-2.2v-13.5c0-0.2,0-0.4,0.1-0.6l0-0.1l0,0v0h0c0-0.2,0.1-0.4,0.2-0.5
		c1.3-3.3,2.8-6.2,4.4-8.8c1.6-2.7,3.4-5,5.3-7c1.8-2,3.8-3.6,5.8-5.1c1.6-1.1,3.3-2.1,5-3c0-1,0-1.9,0.1-2.8
		c0.2-1.5,0.6-2.9,1.1-4.2c0.7-1.6,1.6-2.9,2.5-4c1.1-1.2,2.4-2.1,3.7-2.5l0.7,2.1l-0.7-2.1c0.1,0,0.1,0,0.2,0
		c0.4-0.1,0.9-0.2,1.3-0.3c0.5-0.1,1-0.1,1.5-0.2v0l0,0v0c0.1,0,0.1,0,0.2,0c0.4,0,0.9,0,1.2,0c0.3,0,0.7,0.1,1,0.1
		c1-0.1,1.9-0.1,2.8,0.1l0,0l0,0l0,0c0.1,0,0.1,0,0.2,0c1,0.2,2,0.5,2.9,0.9c0.2,0.1,0.4,0.2,0.7,0.3c0.1-0.6,0.3-1.2,0.5-1.7
		c0.5-1.4,1.1-2.6,1.9-3.6c0.9-1.1,1.9-1.9,2.9-2.5c0.5-0.2,0.9-0.4,1.4-0.6c0.5-0.2,1-0.3,1.5-0.4v0l0,0l0,0c0.1,0,0.1,0,0.1,0
		c0.4-0.1,0.9-0.1,1.3-0.2c0.4,0,0.7,0,1,0c0.9-0.2,1.9-0.4,2.8-0.4c1.1,0,2.1,0.1,3.1,0.4c0.6,0.2,1.1,0.4,1.6,0.6
		c0.1-0.5,0.2-1.1,0.3-1.5c0.3-1.3,0.8-2.4,1.4-3.4c0.7-1.1,1.5-2,2.4-2.6c0.4-0.3,0.9-0.5,1.3-0.8c0.5-0.2,1-0.4,1.4-0.6
		c0.5-0.2,1-0.3,1.4-0.4c0.3-0.1,0.7-0.1,1-0.2L388.5,457.2L388.5,457.2z M410.6,420.2c1.1-0.2,2.1-0.2,3.2,0c0.3,0.1,0.7,0.1,1,0.2
		c0-0.4,0-0.7,0-1.1c0-1.3,0.2-2.6,0.5-3.6l0,0c0-0.1,0.1-0.1,0.1-0.2c0.4-1.1,1-2.1,1.6-2.8l1.6,1.5l-1.6-1.5
		c0.1-0.1,0.1-0.1,0.2-0.2c0.3-0.3,0.6-0.6,0.9-0.8c0.4-0.3,0.8-0.6,1.2-0.9c0.4-0.3,0.9-0.5,1.3-0.7c0.3-0.2,0.7-0.3,1-0.4
		c0.8-0.5,1.6-1,2.5-1.3c0.8-0.3,1.6-0.5,2.4-0.6l-0.1-0.2c-0.6-1.3-0.9-2.6-1-3.7l2.2-0.2l-2.2,0.2l0-0.1c-0.1-1.3,0.1-2.5,0.5-3.5
		l0,0l0,0l0,0c0-0.1,0-0.1,0.1-0.2c0.2-0.4,0.4-0.8,0.6-1.2l0.4,0.2l0,0l-0.4-0.2c0-0.1,0.1-0.1,0.1-0.2c0.2-0.4,0.5-0.8,0.8-1.1
		c0.3-0.4,0.6-0.7,0.9-1.1c0.2-0.2,0.5-0.5,0.7-0.7c0.5-0.8,1.2-1.5,1.9-2.1c0.8-0.7,1.7-1.3,2.7-1.7c0.9-0.4,1.9-0.7,2.9-0.8
		c0.7-0.1,1.3-0.1,2-0.1c0.4-0.3,0.9-0.5,1.3-0.7c0.7-0.3,1.5-0.6,2.3-0.8c0.9-0.2,1.8-0.3,2.7-0.2c0.9,0.1,1.7,0.3,2.6,0.6
		c0.9,0.3,1.7,0.8,2.3,1.3c0.7,0.5,1.3,1.2,1.9,1.9c0.5,0.7,0.9,1.4,1.2,2.1c0.2,0.4,0.3,0.9,0.4,1.4c0.5,0.4,1,0.8,1.4,1.3
		c0.6,0.7,1.2,1.6,1.5,2.5c0.4,1,0.7,2,0.8,3c0.1,0.9,0.1,1.8-0.1,2.8c0,0.3,0.1,0.7,0.1,1c0,0.5,0,1-0.1,1.4
		c-0.1,0.5-0.1,1-0.3,1.5c-0.1,0.5-0.3,1-0.5,1.4c-0.5,1.2-1.4,2.4-2.7,3.4c-1.1,0.9-2.5,1.7-4.2,2.2c-1.2,0.4-2.5,0.7-3.9,0.8
		c-0.4,0-0.9,0.1-1.4,0.1l0,0.2c0,0.1,0,0.3,0,0.4c0.3,0.5,0.6,1.1,0.8,1.7c0.3,0.9,0.5,1.9,0.5,2.9c0,1-0.1,2.1-0.4,3.1
		c-0.3,0.9-0.6,1.7-1.1,2.6c-0.1,0.3-0.2,0.6-0.3,1c-0.2,0.4-0.4,0.9-0.6,1.3l0,0l-0.1,0.1c-0.2,0.4-0.4,0.8-0.7,1.2
		c-0.3,0.4-0.6,0.8-1,1.2c-0.9,1-2.2,1.7-3.8,2.2c-1.4,0.4-3,0.7-4.7,0.6c-1.3,0-2.6-0.2-4-0.6c-0.2-0.1-0.5-0.1-0.7-0.2
		c0,0.2,0.1,0.4,0.1,0.6c0.1,1,0.1,2-0.2,2.9c-0.2,1-0.6,2-1.1,2.9c-0.5,0.8-1,1.5-1.7,2.2c-0.2,0.3-0.3,0.6-0.5,0.9
		c-0.3,0.4-0.6,0.8-0.9,1.2c-0.3,0.4-0.7,0.7-1.1,1.1c-0.4,0.3-0.8,0.7-1.2,0.9l-1.3-1.8l1.3,1.8c-0.1,0.1-0.1,0.1-0.2,0.1
		c-1,0.6-2.2,1-3.6,1.2c-1.3,0.2-2.8,0.1-4.4-0.2c-1.3-0.3-2.7-0.7-4-1.4c-0.2-0.1-0.3-0.2-0.5-0.3c-0.1,1-0.3,2-0.7,3
		c-0.4,0.9-0.9,1.8-1.5,2.6c-0.6,0.7-1.2,1.3-1.9,1.9c-0.2,0.2-0.4,0.5-0.6,0.8c-0.3,0.4-0.7,0.7-1,1c-0.4,0.3-0.8,0.6-1.2,0.9l0,0
		c-0.1,0-0.1,0.1-0.2,0.1c-0.4,0.2-0.7,0.4-1.1,0.6c-1,0.5-2.4,0.8-3.8,0.8c-1.3,0-2.7-0.2-4.1-0.7c-1.1-0.4-2.2-0.9-3.4-1.6
		c-0.2-0.1-0.3-0.2-0.5-0.3L410.6,420.2L410.6,420.2z M441.3,419.2L441.3,419.2l0.2,0L441.3,419.2L441.3,419.2z"/>
	<path class="st1" d="M387.6,453.6c-0.1,0.3-0.3,0.5-0.5,0.7c-0.2,0.3-0.5,0.6-0.8,0.9c0.2,1.5-0.1,3-0.9,4.3
		c-0.8,1.4-2,2.6-3.6,3.4c-0.5,0.5-1.1,1-1.8,1.5c-0.7,0.4-1.4,0.8-2.2,1c-1.3,0.4-3.2,0.3-5.2-0.5c-1.5-0.6-3.1-1.6-4.6-3
		c-4.9,2.5-9.4,5.6-13.4,9.9c-4.1,4.5-7.8,10.4-10.6,18.2l-1.4-0.3v-13.5l0.1-0.3c2.5-6.5,5.7-11.5,9.3-15.3
		c3.5-3.7,7.4-6.3,11.5-8.3c-0.4-2.8,0.1-5.4,0.9-7.4c1.2-2.7,3.1-4.6,4.9-5.2c0.8-0.2,1.6-0.4,2.4-0.4c0.8,0,1.6,0,2.3,0.2
		c1.8-0.2,3.5,0,5,0.7c1.4,0.6,2.6,1.7,3.4,3l0.2,0c-0.2-2.1,0.1-4.1,0.6-5.7c0.8-2.3,2.2-4,3.7-4.7c0.8-0.4,1.5-0.6,2.3-0.8
		c0.8-0.1,1.6-0.2,2.3-0.2c1.7-0.5,3.5-0.5,5.1,0c1.5,0.4,2.8,1.3,3.8,2.5c0.3,0,0.5,0,0.8,0.1c-0.3-1.9-0.2-3.6,0.1-5.1
		c0.5-2.2,1.6-3.8,2.8-4.7c0.7-0.5,1.4-0.8,2.2-1.1c0.8-0.3,1.6-0.4,2.3-0.5c1.6-0.7,3.4-1,5-0.8c1.6,0.2,3,0.9,4.1,1.9
		c0.1,0,0.3,0,0.4,0c-0.7-1.7-1-3.4-1-5c0-2.2,0.7-4,1.7-5.1l0,0c0.6-0.6,1.2-1.1,1.9-1.5c0.7-0.4,1.4-0.7,2.1-1
		c1.4-1.1,3.1-1.7,4.7-1.8c1.2-0.1,2.4,0.1,3.5,0.5c-1.1-1.2-1.9-2.5-2.4-3.7c-0.9-2.2-1-4.2-0.5-5.7c0.3-0.8,0.7-1.5,1.2-2.1
		c0.5-0.6,1-1.2,1.6-1.6c0.9-1.5,2.3-2.6,3.8-3.3c1.4-0.6,3-0.9,4.5-0.6c1-0.8,2.2-1.4,3.5-1.7c1.3-0.3,2.7-0.2,4,0.3
		c1.3,0.5,2.4,1.3,3.2,2.4c0.7,1,1.2,2.2,1.4,3.5c1.3,0.8,2.3,2,2.9,3.4c0.6,1.5,0.8,3.2,0.5,4.9c0.1,0.7,0.1,1.5,0,2.2
		c-0.1,0.8-0.3,1.6-0.6,2.3c-0.7,1.7-2.7,3.4-5.5,4.4c-2,0.7-4.3,1-6.9,0.6c0.1,0.4,0.2,0.8,0.2,1.3c0,0.7,0,1.5-0.2,2.2
		c0.9,1.2,1.4,2.7,1.5,4.2c0,1.6-0.4,3.2-1.4,4.7c-0.1,0.7-0.4,1.4-0.8,2.1h0c-0.4,0.7-0.8,1.4-1.4,2c-1.2,1.3-3.8,2.3-6.8,2.2
		c-2.1-0.1-4.5-0.6-6.8-1.8c0,0.2-0.1,0.4-0.2,0.6c-0.1,0.5-0.3,0.9-0.5,1.4c0.6,1.4,0.8,2.9,0.5,4.4c-0.3,1.6-1.2,3.1-2.4,4.3
		c-0.3,0.6-0.7,1.3-1.2,1.9c-0.5,0.6-1.1,1.1-1.8,1.6c-1.4,1-3.8,1.4-6.6,0.8c-2.1-0.4-4.5-1.5-6.6-3.3c-0.1,0.1-0.1,0.2-0.2,0.4
		c-0.2,0.3-0.4,0.7-0.6,1c0.4,1.5,0.3,3.1-0.3,4.6c-0.6,1.4-1.6,2.7-3,3.7c-0.4,0.6-0.9,1.2-1.5,1.7c-0.6,0.5-1.3,1-2,1.3
		c-1.5,0.7-3.8,0.8-6.2,0C391.2,456.4,389.3,455.3,387.6,453.6L387.6,453.6z"/>
	<path class="st0" d="M251.1,437.4c-2.4-1.9-4.6-4-6.9-6.1c-4.5-0.2-8.8-1.8-12.5-4.3c-4.1-2.8-7.2-6.7-9.2-11.3
		c-2.5-5.9-3.1-10.9-3.1-17.2c0-1.1,0-2.2-0.1-3.4l-0.1-1.4l3.9-1.4l0.8,1.1c2.7,3.9,6.2,6.3,10.1,8.9c4.5,3,8.5,5.7,10.7,10.9
		c2,4.6,3.2,8,3.4,13c0,0,0,0,0,0c2.3,1.8,4.7,3.6,7.2,5.2c-1.8-2.6-3.1-5.5-3.6-8.8c-1-6.1-0.3-10.9,1.1-16.8
		c0.3-1,0.5-2.1,0.7-3.2l0.2-1.4l4.2-0.5l0.5,1.3c1.7,4.3,4.7,7.9,7.6,11.4c3.5,4.2,7.1,8.4,8.1,14c0.8,4.8,0.9,8-0.5,12.6
		c0,0.1-0.1,0.3-0.1,0.4c0.3,0.1,0.6,0.2,0.9,0.3c1,0.3,2,0.6,2.9,0.8c2,0.5,4.1,0.9,6.2,1.4c-1.5-1.3-2.8-2.8-3.8-4.6
		c-2.9-5.1-3.8-9.5-4.2-15.3c-0.1-1-0.1-2-0.3-3l-0.2-1.3l3.7-1.8l0.9,1c3,3.4,7,5.7,10.8,7.9c4.5,2.6,9.4,5.4,12.1,10.1
		c2.3,4.1,3.3,7,3.3,11.6c0,0,0,0,0,0.1c5.8,1.8,11.2,4.2,16,8.1c6.3,5.1,10.5,11.9,13.4,19.4l0.1,0.2l0.1,0.6v15.2l-4.4,0.8
		l-0.5-1.4c-2.7-7.4-6.5-14.2-12.2-19.6c-4.2-4-9.1-6.9-14.4-9.2c-2.2,3.1-5.3,5.8-8.6,7.7c-3.7,2.1-8.2,3.5-12.5,3
		c-6-0.7-10.5-2.7-15.7-5.5c-1-0.5-1.9-1.1-2.9-1.5l-1.3-0.6l0.6-4.1l1.4-0.2c4-0.5,7.4-2,11-3.7c2.1-1,4.1-1.9,6.2-2.6
		c-2-0.7-4-1.3-6-2.1c-1.5-0.6-3-1.2-4.5-1.9c-0.9-0.4-1.8-0.9-2.7-1.4c-2.6,2.9-6.2,5.1-9.8,6.4c-4.4,1.6-9.2,1.9-13.7,0.7
		c-6.3-1.6-10.7-4.3-15.9-8c-1-0.7-1.9-1.4-2.9-2l-1.2-0.7l1.2-4l1.4,0.1c4.5,0.2,8.1-0.8,12.3-2.1
		C243.7,438.1,247.1,437.1,251.1,437.4L251.1,437.4z"/>
	<path class="st1" d="M302.8,459.7c-2,3.2-5.2,6.3-8.8,8.3c-3.6,2-7.6,3.2-11.4,2.8c-6.7-0.7-11.5-3.3-15.1-5.3
		c-1.1-0.6-2.2-1.2-3.1-1.6l0.2-1.4c4.5-0.5,8.1-2.2,11.5-3.8c4.2-2,8.1-3.8,13-3.3c0.8,0.1,1.5,0.2,2.2,0.3l-2.6-0.8
		c-4.1-1.3-8.3-2.6-12.5-4.2c-1.5-0.5-2.9-1.2-4.4-1.9c-1.3-0.6-2.6-1.3-3.9-2c-2.4,3-5.9,5.5-10,7c-4,1.4-8.4,1.8-12.7,0.7
		c-7.1-1.8-11.8-5.2-15.3-7.7c-1.1-0.8-2.1-1.5-3-2.1l0.4-1.4c5.1,0.3,9.1-1,12.9-2.2c4.5-1.4,8.7-2.7,13.8-1.4c2,0.5,3.6,1,5,1.5
		c-1.5-1-2.9-2.1-4.3-3.2c-3.4-2.7-6.7-5.5-9.7-8.4c-4.3-0.1-8.6-1.5-12.3-4c-3.6-2.5-6.7-6.1-8.6-10.5c-2.9-6.8-3-12.3-3-16.5
		c0-1.3,0-2.5-0.1-3.5l1.3-0.5c3.1,4.4,6.9,7,10.6,9.3c4.2,2.7,8,5.3,10.1,10.1c3,7.1,3.1,9.5,3.2,12.4c0,0.3,0,0.5,0,0.8
		c3.7,2.9,7.6,5.8,11.8,8.3c2.2,1.3,4.5,2.6,6.8,3.7c-5.2-4.3-10.4-9.6-11.5-16.7c-1.2-7,0.1-12.1,1.1-16.1c0.3-1.2,0.6-2.3,0.7-3.3
		l1.4-0.2c1.8,4.7,5,8.4,7.9,11.9c3.5,4.2,6.8,8.1,7.7,13.1c1.1,6.7,0.3,9.2-0.5,11.8c-0.2,0.7-0.4,1.3-0.6,2.1
		c0.8,0.3,1.7,0.6,2.5,0.8c1,0.3,2,0.6,3,0.9c4.2,1,8.3,1.8,12.4,2.5c1.3,0.2,2.5,0.5,3.8,0.7c-4.7-2.1-9.4-4.6-11.9-9.1
		c-3.3-5.9-3.7-10.8-4-14.6c-0.1-1.2-0.2-2.2-0.3-3.1l1.3-0.6c3.2,3.6,7.3,6,11.3,8.3c4.7,2.7,9,5.2,11.4,9.5
		c3.1,5.5,3.1,8.2,3.1,10.7c0,0.5,0,0.9,0,1.4c6,1.7,11.6,4.1,16.6,8.2c5.1,4.2,9.5,10.1,12.9,18.7l0.1,0.3v13.5l-1.4,0.3
		c-3.3-9.1-7.6-15.5-12.7-20.3C314.3,465.2,308.7,462.1,302.8,459.7L302.8,459.7z"/>
	<path class="st0" d="M244,426.3c-6.8,0.2-13.9-4-17.3-11c-3.4-7-2.8-12.3-3.3-15.8c5.8,7.6,13.9,8.2,17.3,15.2
		C244.1,421.7,243.5,422.8,244,426.3L244,426.3z"/>
	<path class="st0" d="M269.5,438.2c-5.1-3.7-12.1-8.3-13.7-15.4c-1.6-7.1,0.3-12,0.7-15.3c3.6,8,11.8,12,13.4,19.2
		C271.4,433.8,269.8,434.9,269.5,438.2L269.5,438.2z"/>
	<path class="st0" d="M264.9,445.6c-3.2,5.3-11.5,9-19.1,7c-7.6-2-11.7-5.9-14.9-7.8c9.2,0.6,14.2-4.4,21.8-2.5
		C260.3,444.3,261.7,446.2,264.9,445.6L264.9,445.6z"/>
	<path class="st0" d="M301,447.1c-5.5-3.2-14.2-4.4-17.8-10.2c-3.6-5.8-3.1-10.5-3.7-13.5c5.9,6.1,15.2,7.6,18.7,13.4
		C301.8,442.6,300.4,444.2,301,447.1L301,447.1z"/>
	<path class="st0" d="M331.5,484.7v-5.7c-11.2-28.6-34-28.2-56.1-33.6c-6.8-1.7-13.6-5.2-19.8-9c6.7,5.3,14,9.8,21.4,12.6
		C298.1,456.8,319.9,457.8,331.5,484.7L331.5,484.7z"/>
	<path class="st0" d="M301,457.8c-2.4,5.7-11.3,11.7-18.2,11c-6.9-0.8-11-4-14-5.3c8.3-0.9,13.4-6.3,20.3-5.5
		C296,458.6,297.1,459.6,301,457.8L301,457.8z"/>
	<path class="st0" d="M344.3,484.7c5.7-13.1,13.8-20.1,23.1-24.7c-1-1.3-1.9-2.8-2.5-4.7c-0.2-0.5-0.3-0.9-0.4-1.4
		c-8.3,4-15.3,10.6-20.2,23.1V484.7L344.3,484.7z"/>
	<path class="st0" d="M385.5,448.9c0.7,2,0.1,4.1-1.2,5.5c0.5,2.6-0.9,5.2-3.5,6.2c0.8-0.9,1.1-1.8,0.9-2.4
		c-0.4-1.3-1.5-2.1-2.9-2.6c0.7-1.5,0.9-3.2,0.4-4.8c-0.5-1.6-1.7-2.8-3.2-3.7c0.8-1.2,1.2-2.4,0.7-3.7c-0.2-0.6-1-1.1-2.2-1.4
		c2.7-0.6,5.5,0.7,6.6,3.1C383.1,445.6,384.9,446.9,385.5,448.9L385.5,448.9z"/>
	<path class="st0" d="M432.3,419.7c1.3,1.1,2.1,2.7,2.2,4.5c1.5-0.3,3,0,4,0.9c1,0.9,0.7,3.8-1.2,5.8c-1.7,1.8-6.9,2.6-12-0.7
		c-0.1-1-0.4-2-1.1-2.8c-0.9-1.3-2.3-2.1-3.9-2.4c-2.1-3.7-1.7-7.4-0.3-8.9c1.9-2,4.9-2.6,5.9-1.7c1,0.9,1.5,2.2,1.4,3.7
		C429.2,418,430.9,418.5,432.3,419.7L432.3,419.7z"/>
	<path class="st0" d="M416.1,433c1,1.4,1.4,3.1,1.2,4.9c1.5,0.1,2.9,0.7,3.7,1.8c0.8,1.1-0.2,3.9-2.5,5.5c-2.1,1.4-7.3,1.1-11.5-3.1
		c0.2-1.2,0-2.4-0.6-3.5c-0.7-1.3-1.8-2.3-3.2-2.9c-1.2-4.2,0.1-7.7,1.8-8.9c2.4-1.6,5.5-1.5,6.3-0.4c0.8,1.1,0.9,2.5,0.5,3.9
		C413.5,430.7,415.1,431.6,416.1,433L416.1,433z"/>
	<path class="st0" d="M397.4,442.9c0.8,1.5,0.9,3.2,0.4,4.9c1.5,0.3,2.7,1.1,3.3,2.2c0.6,1.1-0.8,3.8-3.3,5c-2.1,1-6.6,0.1-9.9-3.7
		c0.2-1,0.2-2.1-0.1-3.1c-0.5-1.5-1.7-2.7-3.1-3.5c-1-4.7,0.9-8.4,3-9.4c2.5-1.2,5.5-0.7,6.1,0.5c0.6,1.2,0.5,2.6-0.1,3.9
		C395.3,440.2,396.6,441.3,397.4,442.9L397.4,442.9z"/>
	<path class="st0" d="M378.1,451.2c0.5,1.6,0.4,3.2-0.4,4.8c1.4,0.5,2.5,1.4,2.9,2.6c0.4,1.2-1.3,3.5-3.9,4.4
		c-2.6,0.8-8.3-1.5-10.4-8.1c-2.2-6.6,1-11.6,3.6-12.4c2.6-0.8,5.5,0.1,5.9,1.3c0.4,1.2,0.1,2.6-0.7,3.7
		C376.4,448.4,377.5,449.7,378.1,451.2L378.1,451.2z"/>
	<path class="st0" d="M437.7,413.9c1.7,1.4,2.3,3.6,1.8,5.5c1.8,2,2,5.1,0.3,7.3c0.2-1.2,0-2.1-0.5-2.6c-1.1-1-2.5-1.2-4-0.9
		c-0.2-1.7-0.9-3.3-2.2-4.5c-1.3-1.2-3-1.7-4.9-1.7c0.1-1.5-0.2-2.7-1.4-3.7c-0.5-0.4-1.5-0.5-2.7-0.2c2.1-1.9,5.3-2.1,7.6-0.5
		C433.7,412.1,436,412.5,437.7,413.9L437.7,413.9z"/>
	<path class="st0" d="M422.8,428.5c1.3,1.8,1.4,4,0.5,5.9c1.4,2.4,0.8,5.5-1.4,7.2c0.5-1.1,0.5-2.1,0.1-2.6
		c-0.9-1.2-2.2-1.7-3.7-1.8c0.2-1.8-0.1-3.5-1.2-4.9c-1-1.4-2.6-2.3-4.4-2.7c0.4-1.4,0.4-2.7-0.5-3.9c-0.4-0.5-1.4-0.8-2.6-0.8
		c2.5-1.4,5.7-0.9,7.6,1.1C419.3,425.8,421.5,426.7,422.8,428.5L422.8,428.5z"/>
	<path class="st0" d="M404.6,439.4c1,1.9,0.8,4.1-0.4,5.7c0.9,2.5-0.1,5.4-2.5,6.8c0.6-1,0.8-1.9,0.5-2.5c-0.7-1.3-1.8-1.9-3.3-2.2
		c0.5-1.7,0.4-3.4-0.4-4.9c-0.8-1.5-2.2-2.6-3.8-3.2c0.7-1.3,0.8-2.6,0.1-3.9c-0.3-0.6-1.2-1-2.4-1.1c2.6-1,5.6-0.1,7.1,2.2
		C401.6,436.4,403.6,437.5,404.6,439.4L404.6,439.4z"/>
	<path class="st0" d="M442.8,401.5c1.7,0.6,3,1.8,3.9,3.4c1.3-0.8,2.9-1.1,4.1-0.7c1.3,0.4,2.2,3.4,1.1,6.1c-0.9,2.4-5.6,5.2-11.7,4
		c-0.5-0.9-1.2-1.7-2.1-2.3c-1.4-0.9-3-1.1-4.6-0.8c-3.4-2.8-4.5-6.5-3.7-8.5c1-2.7,3.7-4.4,5-4c1.3,0.4,2.3,1.6,2.7,3
		C439.2,401.1,441.1,400.9,442.8,401.5L442.8,401.5z"/>
	<path class="st0" d="M445.7,393.9c2.1,0.7,3.6,2.5,3.9,4.6c2.6,1.2,3.9,4.1,3.1,6.9c-0.3-1.2-0.8-2-1.4-2.3
		c-1.5-0.5-2.8-0.2-4.1,0.7c-0.8-1.6-2.2-2.8-3.9-3.4c-1.7-0.6-3.6-0.4-5.3,0.3c-0.5-1.4-1.3-2.5-2.7-3c-0.6-0.2-1.6,0.1-2.7,0.9
		c1.3-2.6,4.2-4,7-3.4C441.2,393.7,443.6,393.2,445.7,393.9L445.7,393.9z"/>
	<path class="st0" d="M337.8,208.9c54.4,0,98.5,44.1,98.5,98.6c0,54.4-44.1,98.6-98.5,98.6c-54.4,0-98.6-44.1-98.6-98.6
		C239.3,253,283.4,208.9,337.8,208.9L337.8,208.9z"/>
	<path class="st4" d="M407.5,369.8c23.7,2.8,47.1-11.8,54.9-33.3c15.6,4.4,27.2-5,35.7-17l-3.2,0.1c5.6-1.9,10.6-5.3,14.9-10.2
		l4.7-5.4l-1.5,0.1c7.4-3,13.2-8.5,17.8-17.1l3.1-5.8l-6.4,1.5c-9.2,2.2-18.4,3.4-27.8,3.9c-11.6,0.6-22.1-0.4-33.6-1
		c0.3-1.5,0-2.9-0.3-4l0-0.1l-0.2-0.7l4.6,0.6c16,1.9,29.9,2.4,41,0.8c11.7-1.7,20.4-5.9,25.4-13.1l3.6-5.2c7.3-1.7,16.3-4,27.3-18
		c16.1-3.3,21-9.2,29-19.9c13.5-3.8,24.3-11.9,29.5-25.4l2-5.3l-5.5,1.3c-10.5,2.5-21.7,3.8-33.7,4.5c-11.5,0.7-23.7,0.7-36.4,0.4
		c1-1.4,2-3,2.8-4.7l2.4-4.7l-5.2,0.4c-9.7,0.6-19,1.1-28.1,1.2c-6.7,0-13.8-0.2-20.5-0.7c2.9-2.4,4.9-3,7.1-4
		c-57.3-9-60.3,11.9-61.6,33.8c-0.8,14.7-0.1,30.8-22.7,39l-5.6,2.4C433.9,289.6,439,341.8,407.5,369.8L407.5,369.8z"/>
	<path class="st0" d="M422.8,349.7c4.9-8.2,16.8-41,5-71.8c3.3,3.9,25.7,6.7,34.3,4.5c0.3,1.1,0.8,2.5-0.2,3.6
		C442.6,299.3,443.9,340.4,422.8,349.7L422.8,349.7z"/>
	<path class="st0" d="M536,214.5c5-1.3,9.7-4.7,13-9.9c26.9,0.6,51.3,0.1,72.6-5c-7.4,19.4-32.1,32.3-93.8,25.9
		C530.8,222.7,533.6,219.1,536,214.5L536,214.5z"/>
	<path class="st0" d="M589.6,227.5c-21.5,3.8-47,4-63.3,0.7c-1.8,2-5.4,5-8.6,6.4c-1.5,4.5-5.8,9.3-8.3,11
		C536.6,247,576,249.2,589.6,227.5L589.6,227.5z"/>
	<path class="st0" d="M489.8,263.1c7.4-4.4,11.7-8.4,15.9-13.9c18.7,2.1,38.5,0.8,55.3-2C548.3,263.4,522.2,267.2,489.8,263.1
		L489.8,263.1z"/>
	<path class="st0" d="M471.1,277.9c5.7-2.2,12.1-6.7,15.2-10.8c17.1,3.8,33.7,2.8,47.2-0.7C524.6,279.5,502.5,281.8,471.1,277.9
		L471.1,277.9z"/>
	<path class="st0" d="M474.5,210.1c34.3,10.5,65,9.7,76.5-14.5c-19.3,1.3-39.7,2.2-58.1-0.3C487.2,195,472.4,205.2,474.5,210.1
		L474.5,210.1z"/>
	<path class="st0" d="M529.2,218.8c-18.9,1.9-39.1,0.2-55.2-6.3c-2.3,5-2.3,14.8-3.7,20C496.3,238.2,517.3,234.1,529.2,218.8
		L529.2,218.8z"/>
	<path class="st0" d="M464.7,251.5c2.5-2.9,4.7-10.4,5.4-15.2c13.8,3.6,30.3,1.9,43.4-1.2C504.7,249.1,485.5,254.7,464.7,251.5
		L464.7,251.5z"/>
	<path class="st0" d="M453.2,266.4c4.7-3.8,8.2-7.6,10.4-12.2c8.7,3.2,23.5,1.2,33.9-1.9C485.8,265.5,468.2,267.5,453.2,266.4
		L453.2,266.4z"/>
	<path class="st0" d="M436.2,277.9c5.6-2.4,11-5.2,13.8-8.9c8.2,2.5,23.3,0.3,30.1-1.6C471.4,277.4,450.9,282.1,436.2,277.9
		L436.2,277.9z"/>
	<path class="st0" d="M432.2,276.1c-4-2.3-6.8-5.9-9-10c61.6-17.9-8.7-85,81.9-76C437.1,196.7,497.4,244.1,432.2,276.1L432.2,276.1z
		"/>
	<path class="st0" d="M468.1,301.1c0.4-4,0.4-8,0.1-12c20.4,1.9,39.5,1.3,58.3-3.1C515.7,305.9,498.2,307.4,468.1,301.1L468.1,301.1
		z"/>
	<path class="st0" d="M466.6,316.9c0.9-3.8,1.5-9,1.4-12.3c11.3,3.4,23.9,3.9,37.9,3C496,318.8,483.3,321.1,466.6,316.9L466.6,316.9
		z"/>
	<path class="st0" d="M463.2,332.4c1.1-3.6,2.2-7.3,2.8-11.3c8,1.8,15.6,2.1,23.6,1.8C481.9,331.6,473.4,335.3,463.2,332.4
		L463.2,332.4z"/>
	<path class="st0" d="M463.9,288.7c2.4,54-19.6,77.6-52.3,78.3c1.8-2.6,5.4-7.1,8.8-12.9C449.9,346.6,447.3,299.8,463.9,288.7
		L463.9,288.7z"/>
	<path class="st4" d="M429.7,339.6c4.8-7.6,10.5-40.5,3.5-56.5c5.6,3.1,19.3,3.5,23.7,2.1c0.2,0.9-0.3,1.5-1.1,2.4
		C442.6,298.8,439.8,329.4,429.7,339.6L429.7,339.6z"/>
	<path class="st4" d="M268.8,369.8c-23.7,2.8-47.1-11.8-54.9-33.3c-15.6,4.4-27.2-5-35.7-17l3.2,0.1c-5.6-1.9-10.6-5.3-14.9-10.2
		l-4.7-5.4l1.5,0.1c-7.4-3-13.2-8.5-17.8-17.1l-3.1-5.8l6.4,1.5c9.2,2.2,18.4,3.4,27.8,3.9c11.6,0.6,22.1-0.4,33.6-1
		c-0.3-1.5,0-2.9,0.3-4l0-0.1l0.2-0.7l-4.6,0.6c-15.9,1.9-29.9,2.4-41,0.8c-11.7-1.7-20.4-5.9-25.4-13.1l-3.6-5.2
		c-7.3-1.7-16.3-4-27.3-18c-16.1-3.3-21-9.2-29-19.9c-13.5-3.8-24.3-11.9-29.5-25.4l-2-5.3l5.5,1.3c10.5,2.5,21.7,3.8,33.6,4.5
		c11.5,0.7,23.7,0.7,36.4,0.4c-1-1.4-2-3-2.8-4.7l-2.4-4.7l5.2,0.4c9.7,0.6,19,1.1,28.1,1.2c6.7,0,13.8-0.2,20.5-0.7
		c-2.9-2.4-4.9-3-7.1-4c57.3-9,60.3,11.9,61.6,33.8c0.8,14.7,0.1,30.8,22.7,39l5.6,2.4C242.4,289.6,237.3,341.8,268.8,369.8
		L268.8,369.8z"/>
	<path class="st0" d="M253.5,349.7c-4.9-8.2-16.8-41-5-71.8c-3.3,3.9-25.7,6.7-34.3,4.5c-0.3,1.1-0.8,2.5,0.2,3.6
		C233.7,299.3,232.4,340.4,253.5,349.7L253.5,349.7z"/>
	<path class="st0" d="M140.3,214.5c-5-1.3-9.7-4.7-13-9.9c-26.9,0.6-51.3,0.1-72.6-5c7.4,19.4,32.2,32.3,93.9,25.9
		C145.5,222.7,142.7,219.1,140.3,214.5L140.3,214.5z"/>
	<path class="st0" d="M86.7,227.5c21.5,3.8,47,4,63.3,0.7c1.8,2,5.4,5,8.6,6.4c1.5,4.5,5.8,9.3,8.3,11
		C139.7,247,100.3,249.2,86.7,227.5L86.7,227.5z"/>
	<path class="st0" d="M186.5,263.1c-7.4-4.4-11.7-8.4-15.9-13.9c-18.7,2.1-38.5,0.8-55.3-2C128,263.4,154.1,267.2,186.5,263.1
		L186.5,263.1z"/>
	<path class="st0" d="M205.2,277.9c-5.7-2.2-12.1-6.7-15.2-10.8c-17.1,3.8-33.7,2.8-47.3-0.7C151.7,279.5,173.8,281.8,205.2,277.9
		L205.2,277.9z"/>
	<path class="st0" d="M201.8,210.1c-34.3,10.5-65,9.7-76.5-14.5c19.3,1.3,39.7,2.2,58.1-0.3C189.1,195,203.9,205.2,201.8,210.1
		L201.8,210.1z"/>
	<path class="st0" d="M147.1,218.8c18.9,1.9,39.1,0.2,55.2-6.3c2.3,5,2.3,14.8,3.7,20C180.1,238.2,159,234.1,147.1,218.8
		L147.1,218.8z"/>
	<path class="st0" d="M211.6,251.5c-2.5-2.9-4.7-10.4-5.4-15.2c-13.8,3.6-30.2,1.9-43.4-1.2C171.7,249.1,190.9,254.7,211.6,251.5
		L211.6,251.5z"/>
	<path class="st0" d="M223.1,266.4c-4.7-3.8-8.2-7.6-10.4-12.2c-8.7,3.2-23.5,1.2-33.9-1.9C190.5,265.5,208.1,267.5,223.1,266.4
		L223.1,266.4z"/>
	<path class="st0" d="M240.1,277.9c-5.6-2.4-11-5.2-13.8-8.9c-8.2,2.5-23.3,0.3-30.1-1.6C204.9,277.4,225.4,282.1,240.1,277.9
		L240.1,277.9z"/>
	<path class="st0" d="M244.1,276.1c4-2.3,6.7-5.9,9-10c-61.6-17.9,8.7-85-82-76C239.2,196.7,178.9,244.1,244.1,276.1L244.1,276.1z"
		/>
	<path class="st0" d="M208.3,301.1c-0.4-4-0.4-8-0.1-12c-20.4,1.9-39.5,1.3-58.3-3.1C160.6,305.9,178.1,307.4,208.3,301.1
		L208.3,301.1z"/>
	<path class="st0" d="M209.7,316.9c-0.9-3.8-1.5-9-1.4-12.3c-11.3,3.4-23.9,3.9-37.9,3C180.3,318.8,193,321.1,209.7,316.9
		L209.7,316.9z"/>
	<path class="st0" d="M213.1,332.4c-1.1-3.6-2.1-7.3-2.8-11.3c-8,1.8-15.6,2.1-23.6,1.8C194.4,331.6,202.9,335.3,213.1,332.4
		L213.1,332.4z"/>
	<path class="st0" d="M212.4,288.7c-2.4,54,19.6,77.6,52.3,78.3c-1.9-2.6-5.4-7.1-8.8-12.9C226.4,346.6,229,299.8,212.4,288.7
		L212.4,288.7z"/>
	<path class="st4" d="M246.6,339.6c-4.8-7.6-10.5-40.5-3.5-56.5c-5.6,3.1-19.3,3.5-23.7,2.1c-0.2,0.9,0.3,1.5,1.1,2.4
		C233.7,298.8,236.5,329.4,246.6,339.6L246.6,339.6z"/>
	<path class="st1" d="M337.8,212.4c26.2,0,50,10.6,67.2,27.8c17.2,17.2,27.8,40.9,27.8,67.2c0,26.2-10.6,50-27.8,67.2
		c-17.2,17.2-40.9,27.8-67.2,27.8c-26.2,0-50-10.6-67.2-27.8c-17.2-17.2-27.8-40.9-27.8-67.2c0-26.2,10.6-50,27.8-67.2
		C287.8,223.1,311.6,212.4,337.8,212.4L337.8,212.4z M402.3,243c-16.5-16.5-39.3-26.7-64.4-26.7c-25.2,0-47.9,10.2-64.4,26.7
		c-16.5,16.5-26.7,39.3-26.7,64.4c0,25.2,10.2,47.9,26.7,64.4c16.5,16.5,39.3,26.7,64.4,26.7c25.2,0,47.9-10.2,64.4-26.7
		c16.5-16.5,26.7-39.3,26.7-64.4C429,282.3,418.8,259.5,402.3,243L402.3,243z"/>
	<path class="st0" d="M337.8,244.3c34.9,0,63.2,28.3,63.2,63.2c0,34.9-28.3,63.2-63.2,63.2c-34.9,0-63.2-28.3-63.2-63.2
		C274.7,272.5,302.9,244.3,337.8,244.3L337.8,244.3z"/>
	<path class="st1" d="M337.8,242c18.1,0,34.4,7.3,46.2,19.2c11.8,11.8,19.2,28.2,19.2,46.2c0,18.1-7.3,34.4-19.2,46.2
		c-11.8,11.8-28.2,19.2-46.2,19.2c-18.1,0-34.4-7.3-46.2-19.2c-11.8-11.8-19.2-28.2-19.2-46.2c0-18.1,7.3-34.4,19.2-46.2
		C303.4,249.4,319.8,242,337.8,242L337.8,242z M380.9,264.3c-11-11-26.3-17.8-43.1-17.8c-16.8,0-32.1,6.8-43.1,17.8
		c-11,11-17.8,26.3-17.8,43.1c0,16.8,6.8,32.1,17.8,43.1c11,11,26.3,17.8,43.1,17.8c16.8,0,32.1-6.8,43.1-17.8
		c11-11,17.8-26.3,17.8-43.1C398.8,290.6,391.9,275.4,380.9,264.3L380.9,264.3z"/>
	<path class="st4" d="M337.8,260.9c25.7,0,46.6,20.9,46.6,46.6c0,25.7-20.9,46.6-46.6,46.6c-25.7,0-46.6-20.9-46.6-46.6
		C291.3,281.7,312.1,260.9,337.8,260.9L337.8,260.9z"/>
	<path class="st0" d="M337.8,295.3c6.7,0,12.1,5.4,12.1,12.1c0,6.7-5.4,12.1-12.1,12.1c-6.7,0-12.1-5.4-12.1-12.1
		C325.7,300.7,331.1,295.3,337.8,295.3L337.8,295.3z"/>
	<path class="st4" d="M410.2,281c-0.4,0.4-0.8,0.7-1.3,0.9c-2.9,1.2-7-1.9-9.1-6.8c-2.1-4.9-1.5-9.9,1.5-11c0.5-0.2,1-0.3,1.5-0.2
		c0.4,1.1,0.5,2.1,0.3,2.7c-0.3-0.1-0.5-0.1-0.7,0c-1.3,0.5-1.1,3.8,0.4,7.4c1.5,3.6,3.8,6,5.2,5.5c0.3-0.1,0.5-0.3,0.6-0.7
		C409.1,279.3,409.6,280.1,410.2,281L410.2,281z"/>
	<path class="st4" d="M410.4,270.9c0.9,2.1,1.3,4.1,1.2,5.9c-1-1-2.1-1.7-3.2-2.1c-0.2-0.8-0.5-1.8-0.9-2.7
		c-0.4-0.9-0.8-1.8-1.3-2.5c0.6-0.9,0.9-2.2,0.8-3.6C408.3,267.1,409.6,268.9,410.4,270.9L410.4,270.9z"/>
	<path class="st4" d="M405.9,291.1c-1-1.3-1.8-3.1-2.3-5c-0.5-1.9-0.6-3.8-0.4-5.5c1,0.8,2,1.4,3,1.8c0.1,0.9,0.2,1.9,0.5,2.9
		c0.3,1,0.6,1.9,1,2.8C407,288.9,406.4,289.9,405.9,291.1L405.9,291.1z"/>
	<path class="st4" d="M414.7,283.4c1.4,5.2,0,10-3.1,10.7c-0.8,0.2-1.6,0.1-2.4-0.2c0.1-1,0.4-1.9,0.7-2.6c0.4,0.2,0.7,0.3,1,0.3
		c1.4-0.3,1.7-3.7,0.7-7.4c-1-3.7-2.9-6.5-4.3-6.2c-0.3,0.1-0.6,0.4-0.8,0.8c-0.6-0.5-1.3-1.2-1.9-2c0.6-0.7,1.2-1.2,2-1.4
		C409.7,274.6,413.4,278.2,414.7,283.4L414.7,283.4z"/>
	<path class="st4" d="M413.9,306c-0.4,0.3-0.9,0.4-1.4,0.5c-3.1,0.3-6.2-3.7-6.8-9c-0.6-5.3,1.5-9.9,4.6-10.2c0.5-0.1,1,0,1.5,0.2
		c0,1.1-0.1,2-0.3,2.8c-0.3-0.2-0.6-0.3-0.9-0.3c-1.4,0.2-2.2,3.4-1.8,7.2c0.4,3.8,1.9,6.8,3.3,6.7c0.3,0,0.6-0.2,0.8-0.5
		C413.4,304.1,413.7,305,413.9,306L413.9,306z"/>
	<path class="st4" d="M417.1,296.3c0.3,2.2,0,4.4-0.6,6.1c-0.7-1.2-1.5-2.2-2.5-2.9c0.1-0.9,0-1.9-0.1-2.9c-0.1-1.1-0.3-2-0.6-2.9
		c0.8-0.8,1.4-1.9,1.8-3.3C416.2,292,416.9,294,417.1,296.3L417.1,296.3z"/>
	<path class="st4" d="M406.9,314.5c-0.6-1.6-0.8-3.4-0.8-5.4c0.1-2,0.5-3.8,1.2-5.3c0.7,1,1.5,1.9,2.3,2.6c-0.2,0.9-0.3,1.8-0.3,2.8
		c0,1,0,2,0.1,2.8C408.6,312.7,407.7,313.5,406.9,314.5L406.9,314.5z"/>
	<path class="st4" d="M417.6,309.5c-0.2,5.3-2.9,9.6-6.1,9.5c-0.8,0-1.6-0.3-2.2-0.9c0.4-0.9,0.9-1.7,1.4-2.3
		c0.3,0.3,0.6,0.5,0.9,0.5c1.4,0,2.7-3.1,2.8-6.9c0.1-3.8-0.9-7-2.3-7.1c-0.3,0-0.6,0.1-0.9,0.4c-0.4-0.6-0.9-1.4-1.2-2.4
		c0.7-0.5,1.5-0.7,2.3-0.7C415.4,299.7,417.8,304.2,417.6,309.5L417.6,309.5z"/>
	<path class="st4" d="M401.1,337.4c-0.1-1.6,0.2-3.5,0.8-5.4c0.6-1.9,1.6-3.5,2.7-4.8c0.4,1.2,0.9,2.2,1.5,3.1
		c-0.4,0.8-0.8,1.7-1.2,2.7c-0.3,1-0.6,1.9-0.7,2.8C403.2,336,402.1,336.6,401.1,337.4L401.1,337.4z"/>
	<path class="st4" d="M412.8,335.4c-1.7,5.1-5.6,8.4-8.6,7.5c-0.8-0.2-1.4-0.8-1.9-1.5c0.7-0.8,1.4-1.4,2-1.9
		c0.2,0.4,0.4,0.7,0.8,0.8c1.3,0.4,3.5-2.2,4.7-5.9c1.3-3.7,1.2-7-0.2-7.4c-0.3-0.1-0.7,0-1,0.2c-0.2-0.7-0.4-1.6-0.5-2.6
		c0.8-0.3,1.6-0.3,2.4-0.1C413.5,325.4,414.5,330.3,412.8,335.4L412.8,335.4z"/>
	<path class="st4" d="M410.2,331.1c-0.5,0.1-1,0.2-1.5,0.1c-3.1-0.5-4.8-5.2-3.9-10.4c1-5.2,4.3-9.1,7.4-8.6
		c0.5,0.1,0.9,0.3,1.4,0.6c-0.3,1-0.7,1.9-1.1,2.6c-0.2-0.3-0.5-0.4-0.7-0.5c-1.4-0.2-3.1,2.7-3.8,6.5c-0.7,3.8-0.1,7.1,1.2,7.3
		c0.3,0,0.6,0,0.8-0.2C410.3,329,410.3,330,410.2,331.1L410.2,331.1z"/>
	<path class="st4" d="M416.2,322.6c-0.4,2.2-1.2,4.2-2.3,5.7c-0.3-1.4-0.8-2.5-1.6-3.4c0.3-0.8,0.6-1.8,0.8-2.8
		c0.2-1,0.3-1.9,0.3-2.8c1-0.6,1.9-1.5,2.7-2.7C416.5,318.3,416.6,320.4,416.2,322.6L416.2,322.6z"/>
	<path class="st4" d="M407.6,347.6c-2.5,4.8-6.8,7.6-9.6,6.3c-2.8-1.3-3.1-6.3-0.7-11.1c2.5-4.8,6.8-7.6,9.6-6.3
		c0.4,0.2,0.8,0.5,1.2,0.9c-0.6,0.9-1.2,1.7-1.8,2.2c-0.1-0.3-0.3-0.6-0.6-0.7c-1.3-0.6-3.8,1.7-5.5,5.2c-1.8,3.5-2.2,6.8-0.9,7.4
		c1.3,0.6,3.8-1.7,5.5-5.2c0.5-1,0.9-1.9,1.2-2.8c1.1-0.3,2.3-1,3.3-1.9C409.2,343.4,408.6,345.5,407.6,347.6L407.6,347.6z"/>
	<path class="st4" d="M404.3,259.1c2.8,4.6,2.9,9.6,0.2,11.1c-0.7,0.4-1.5,0.5-2.4,0.4c-0.2-1.1-0.2-2,0.1-2.6
		c0.4,0.1,0.7,0.1,0.9-0.1c1.2-0.7,0.6-4-1.5-7.3c-2-3.3-4.7-5.4-5.9-4.7c-1.2,0.7-0.6,4,1.5,7.3c0.6,0.9,1.1,1.7,1.7,2.4
		c-0.5,0.9-0.7,2.1-0.8,3.3c-1.4-1-2.7-2.4-3.7-4.2c-2.8-4.6-2.9-9.6-0.2-11.1C397,252.1,401.5,254.5,404.3,259.1L404.3,259.1z"/>
	<path class="st4" d="M262.3,281c0.4,0.4,0.8,0.7,1.2,0.9c2.9,1.2,7-1.9,9.1-6.8c2.1-4.9,1.4-9.9-1.5-11c-0.5-0.2-1-0.3-1.5-0.2
		c-0.4,1.1-0.5,2.1-0.3,2.7c0.3-0.1,0.5-0.1,0.7,0c1.3,0.5,1.1,3.8-0.4,7.4c-1.5,3.6-3.8,6-5.1,5.5c-0.3-0.1-0.5-0.3-0.6-0.7
		C263.4,279.3,262.9,280.1,262.3,281L262.3,281z"/>
	<path class="st4" d="M262.1,270.9c-0.9,2.1-1.3,4.1-1.2,5.9c1-1,2.1-1.7,3.2-2.1c0.2-0.8,0.5-1.8,0.9-2.7c0.4-0.9,0.8-1.8,1.3-2.5
		c-0.6-0.9-0.9-2.2-0.8-3.6C264.2,267.1,263,268.9,262.1,270.9L262.1,270.9z"/>
	<path class="st4" d="M266.6,291.1c1-1.3,1.8-3.1,2.3-5c0.5-1.9,0.6-3.8,0.4-5.5c-1,0.8-2,1.4-3,1.8c-0.1,0.9-0.3,1.9-0.5,2.9
		c-0.3,1-0.6,1.9-1,2.8C265.5,288.9,266.1,289.9,266.6,291.1L266.6,291.1z"/>
	<path class="st4" d="M257.8,283.4c-1.4,5.2,0,10,3.1,10.7c0.8,0.2,1.6,0.1,2.4-0.2c-0.1-1-0.4-1.9-0.7-2.6
		c-0.4,0.2-0.7,0.3-1.1,0.3c-1.4-0.3-1.7-3.7-0.7-7.4c1-3.7,2.9-6.5,4.3-6.2c0.3,0.1,0.6,0.4,0.8,0.8c0.6-0.5,1.3-1.2,1.9-2
		c-0.5-0.7-1.2-1.2-2-1.4C262.8,274.6,259.1,278.2,257.8,283.4L257.8,283.4z"/>
	<path class="st4" d="M258.6,306c0.4,0.3,0.9,0.4,1.4,0.5c3.1,0.3,6.2-3.7,6.8-9c0.6-5.3-1.5-9.9-4.6-10.2c-0.5-0.1-1,0-1.5,0.2
		c0,1.1,0.1,2,0.4,2.8c0.3-0.2,0.6-0.3,0.9-0.3c1.4,0.2,2.2,3.4,1.8,7.2c-0.4,3.8-1.9,6.8-3.3,6.7c-0.3,0-0.6-0.2-0.8-0.5
		C259.1,304.1,258.8,305,258.6,306L258.6,306z"/>
	<path class="st4" d="M255.4,296.3c-0.3,2.2,0,4.4,0.6,6.1c0.7-1.2,1.5-2.2,2.5-2.9c-0.1-0.9,0-1.9,0.1-2.9c0.1-1.1,0.3-2,0.6-2.9
		c-0.8-0.8-1.4-1.9-1.8-3.3C256.3,292,255.6,294,255.4,296.3L255.4,296.3z"/>
	<path class="st4" d="M265.6,314.5c0.6-1.6,0.8-3.4,0.8-5.4c-0.1-2-0.5-3.8-1.2-5.3c-0.7,1-1.5,1.9-2.3,2.6c0.2,0.9,0.3,1.8,0.3,2.8
		c0,1,0,2-0.1,2.8C264,312.7,264.8,313.5,265.6,314.5L265.6,314.5z"/>
	<path class="st4" d="M254.9,309.5c0.2,5.3,2.9,9.6,6.1,9.5c0.8,0,1.6-0.3,2.2-0.9c-0.4-0.9-0.9-1.7-1.4-2.3
		c-0.3,0.3-0.6,0.5-0.9,0.5c-1.4,0-2.7-3.1-2.8-6.9c-0.1-3.8,0.9-7,2.3-7.1c0.3,0,0.6,0.1,0.9,0.4c0.4-0.6,0.9-1.4,1.2-2.4
		c-0.7-0.5-1.5-0.7-2.3-0.7C257.1,299.7,254.7,304.2,254.9,309.5L254.9,309.5z"/>
	<path class="st4" d="M271.4,337.4c0.1-1.6-0.2-3.5-0.8-5.4c-0.7-1.9-1.6-3.5-2.7-4.8c-0.4,1.2-0.9,2.2-1.5,3.1
		c0.4,0.8,0.8,1.7,1.2,2.7c0.3,1,0.6,1.9,0.7,2.8C269.3,336,270.4,336.6,271.4,337.4L271.4,337.4z"/>
	<path class="st4" d="M259.7,335.4c1.7,5.1,5.6,8.4,8.6,7.5c0.8-0.2,1.4-0.8,1.9-1.5c-0.7-0.8-1.4-1.4-2-1.9
		c-0.2,0.4-0.4,0.7-0.8,0.8c-1.3,0.4-3.5-2.2-4.7-5.9c-1.3-3.7-1.2-7,0.2-7.4c0.3-0.1,0.7,0,1,0.2c0.3-0.7,0.4-1.6,0.5-2.6
		c-0.8-0.3-1.6-0.3-2.4-0.1C259,325.4,258,330.3,259.7,335.4L259.7,335.4z"/>
	<path class="st4" d="M262.3,331.1c0.5,0.1,1,0.2,1.5,0.1c3.1-0.5,4.8-5.2,3.9-10.4c-1-5.2-4.3-9.1-7.4-8.6c-0.5,0.1-1,0.3-1.4,0.6
		c0.3,1,0.7,1.9,1.1,2.6c0.2-0.3,0.5-0.4,0.7-0.5c1.4-0.2,3.1,2.7,3.8,6.5c0.7,3.8,0.1,7.1-1.2,7.3c-0.3,0-0.6,0-0.8-0.2
		C262.2,329,262.2,330,262.3,331.1L262.3,331.1z"/>
	<path class="st4" d="M256.3,322.6c0.4,2.2,1.2,4.2,2.3,5.7c0.3-1.4,0.8-2.5,1.6-3.4c-0.3-0.8-0.6-1.8-0.7-2.8
		c-0.2-1-0.3-1.9-0.3-2.8c-1-0.6-1.9-1.5-2.7-2.7C256,318.3,255.9,320.4,256.3,322.6L256.3,322.6z"/>
	<path class="st4" d="M264.9,347.6c2.5,4.8,6.8,7.6,9.6,6.3c2.8-1.3,3.1-6.3,0.7-11.1c-2.5-4.8-6.8-7.6-9.6-6.3
		c-0.5,0.2-0.8,0.5-1.2,0.9c0.6,0.9,1.2,1.7,1.8,2.2c0.1-0.3,0.3-0.6,0.6-0.7c1.3-0.6,3.8,1.7,5.5,5.2c1.8,3.5,2.2,6.8,0.9,7.4
		c-1.3,0.6-3.8-1.7-5.5-5.2c-0.5-1-0.9-1.9-1.2-2.8c-1.1-0.3-2.3-1-3.3-1.9C263.3,343.4,263.9,345.5,264.9,347.6L264.9,347.6z"/>
	<path class="st4" d="M268.2,259.1c-2.8,4.6-2.9,9.6-0.2,11.1c0.7,0.4,1.5,0.5,2.4,0.4c0.2-1.1,0.2-2-0.1-2.6
		c-0.4,0.1-0.7,0.1-0.9-0.1c-1.2-0.7-0.6-4,1.5-7.3c2-3.3,4.7-5.4,5.9-4.7c1.2,0.7,0.6,4-1.5,7.3c-0.5,0.9-1.1,1.7-1.7,2.4
		c0.5,0.9,0.7,2.1,0.8,3.3c1.4-1,2.7-2.4,3.7-4.2c2.8-4.6,2.9-9.6,0.2-11.1C275.5,252.1,271,254.5,268.2,259.1L268.2,259.1z"/>
	<path class="st0" d="M328.9,270l5.9,23l1-24.1C335.3,263.4,327.5,264.2,328.9,270L328.9,270z"/>
	<path class="st0" d="M318.8,274.1l12.2,20.4l-5.9-23.4C323.1,266,315.8,269,318.8,274.1L318.8,274.1z"/>
	<path class="st0" d="M309.9,281.3l17.7,15.8L315,276.5C311.5,272.3,305.5,277.3,309.9,281.3L309.9,281.3z"/>
	<path class="st0" d="M303.9,290.1l21.4,10.2l-17.9-16.2C302.9,281.1,298.5,287.6,303.9,290.1L303.9,290.1z"/>
	<path class="st0" d="M300.6,300.3l23.4,3.8l-21.7-10.6C297.1,291.8,294.7,299.3,300.6,300.3L300.6,300.3z"/>
	<path class="st0" d="M300.2,311.1l23.5-2.9l-23.8-4.1C294.6,303.9,294.4,311.8,300.2,311.1L300.2,311.1z"/>
	<path class="st0" d="M328.9,344.9l5.9-23l1,24.1C335.3,351.4,327.5,350.6,328.9,344.9L328.9,344.9z"/>
	<path class="st0" d="M318.8,340.8l12.2-20.4l-5.9,23.4C323.1,348.9,315.8,345.9,318.8,340.8L318.8,340.8z"/>
	<path class="st0" d="M309.9,333.6l17.7-15.8L315,338.4C311.5,342.6,305.5,337.6,309.9,333.6L309.9,333.6z"/>
	<path class="st0" d="M303.9,324.7l21.4-10.2l-17.9,16.2C302.9,333.8,298.5,327.3,303.9,324.7L303.9,324.7z"/>
	<path class="st0" d="M300.6,314.6l23.4-3.8l-21.7,10.6C297.1,323,294.7,315.6,300.6,314.6L300.6,314.6z"/>
	<path class="st0" d="M346.7,270l-5.9,23l-1-24.1C340.4,263.4,348.2,264.2,346.7,270L346.7,270z"/>
	<path class="st0" d="M356.8,274.1l-12.2,20.4l5.9-23.4C352.6,266,359.9,269,356.8,274.1L356.8,274.1z"/>
	<path class="st0" d="M365.7,281.3L348,297l12.6-20.6C364.1,272.3,370.2,277.3,365.7,281.3L365.7,281.3z"/>
	<path class="st0" d="M371.8,290.1l-21.4,10.2l17.9-16.2C372.7,281.1,377.1,287.6,371.8,290.1L371.8,290.1z"/>
	<path class="st0" d="M375.1,300.3l-23.4,3.8l21.7-10.6C378.5,291.8,380.9,299.3,375.1,300.3L375.1,300.3z"/>
	<path class="st0" d="M375.4,311.1l-23.5-2.9l23.8-4.1C381.1,303.9,381.3,311.8,375.4,311.1L375.4,311.1z"/>
	<path class="st0" d="M346.7,344.9l-5.9-23l-1,24.1C340.4,351.4,348.2,350.6,346.7,344.9L346.7,344.9z"/>
	<path class="st0" d="M356.8,340.8l-12.2-20.4l5.9,23.4C352.6,348.9,359.9,345.9,356.8,340.8L356.8,340.8z"/>
	<path class="st0" d="M365.7,333.6L348,317.8l12.6,20.6C364.1,342.6,370.2,337.6,365.7,333.6L365.7,333.6z"/>
	<path class="st0" d="M371.8,324.7l-21.4-10.2l17.9,16.2C372.7,333.8,377.1,327.3,371.8,324.7L371.8,324.7z"/>
	<path class="st0" d="M375.1,314.6l-23.4-3.8l21.7,10.6C378.5,323,380.9,315.6,375.1,314.6L375.1,314.6z"/>
	<path class="st0" d="M208.3,480.9c-36.2,7.4-71,6-103.8-7.6c8.9,8.6,17.9,17.3,26.8,25.9c-12.3,3.4-24.6,6.7-36.9,10.1
		c35.7,15.9,59.6,6.7,77,14.8C183.7,510.6,196,494.3,208.3,480.9L208.3,480.9z"/>
	<path class="st1" d="M204.2,483.2c-16.7,3.1-33.1,4.3-49.2,3.3c-15.1-1-29.8-3.9-44.2-9.1l21.5,20.8l1.9,1.8l-2.5,0.7l-32.8,9
		c18.8,7.6,34.2,8.3,47,8.8c9.6,0.4,17.8,0.8,25.1,3.9c5.8-6.4,11.8-13.6,17.7-20.8C193.8,495.3,199,489.1,204.2,483.2L204.2,483.2z
		 M155.2,483.5c17.2,1.1,34.8-0.4,52.8-4.1l1.4,2.5c-6.1,6.6-12.2,14.1-18.4,21.6c-6.1,7.4-12.3,14.8-18.5,21.7l-0.7,0.8l-1-0.5
		c-7-3.3-15.2-3.6-25-4.1c-14-0.6-30.9-1.4-52-10.8l0.2-2.8l34.4-9.4l-24.9-24.1l1.6-2.4C121.3,478.6,138,482.4,155.2,483.5
		L155.2,483.5z"/>
	<polygon class="st4" points="208.4,479.5 159.2,495.5 158.2,495.9 158.2,497 158.2,532.9 158.2,535 160.1,534.3 209.4,518.3 
		210.4,518 210.4,516.9 210.4,480.9 210.4,478.9 208.4,479.5 	"/>
	<path class="st0" d="M467.4,480.9c36.2,7.4,71,6,103.8-7.6c-8.9,8.6-17.9,17.3-26.8,25.9c12.3,3.4,24.6,6.7,36.9,10.1
		c-35.7,15.9-59.6,6.7-77,14.8C492,510.6,479.7,494.3,467.4,480.9L467.4,480.9z"/>
	<path class="st1" d="M467.7,479.4c18,3.7,35.6,5.2,52.8,4.1c17.2-1.1,33.9-4.8,50.2-11.6l1.6,2.4l-24.9,24.1l34.4,9.4l0.2,2.8
		c-21.1,9.4-38,10.1-52,10.8c-9.7,0.4-18,0.8-25,4.1l-1,0.5l-0.7-0.8c-6.2-6.8-12.4-14.2-18.5-21.7c-6.2-7.5-12.3-14.9-18.4-21.6
		L467.7,479.4L467.7,479.4z M520.7,486.5c-16,1-32.5-0.2-49.2-3.3c5.2,5.9,10.4,12.1,15.5,18.3c5.9,7.2,11.9,14.3,17.7,20.8
		c7.3-3.1,15.5-3.5,25.1-3.9c12.8-0.6,28.2-1.3,47-8.8l-32.8-9l-2.5-0.7l1.9-1.8l21.5-20.8C550.5,482.5,535.7,485.5,520.7,486.5
		L520.7,486.5z"/>
	<polygon class="st4" points="467.2,479.5 516.4,495.5 517.5,495.9 517.5,497 517.5,532.9 517.5,535 515.5,534.3 466.3,518.3 
		465.3,518 465.3,516.9 465.3,480.9 465.3,478.9 467.2,479.5 	"/>
	<path class="st0" d="M338.1,585.6L338.1,585.6c-75.1-3.4-94.2-61.7-178.6-52.4v-35.3c97.7-5.7,110.1,51.6,178.9,50.5l0,0h0.2h0.2
		l0,0c68.8,1.2,80.2-56.2,177.9-50.5v35.3c-84.4-9.3-102.5,48.9-177.6,52.3v0l-0.5,0L338.1,585.6L338.1,585.6z"/>
	<path class="st1" d="M338.1,584.1l0.4,0l0.4,0c33.7-1.5,55.9-14.2,77.8-26.8c26.6-15.2,52.8-30.3,98.4-25.7v-32.3
		c-52.6-2.8-79.7,13-104.9,27.6c-20.9,12.1-40.4,23.5-71.6,22.9h-0.1h-0.1h0h-0.1h-0.1c-31.2,0.5-50.9-10.8-72-22.9
		c-25.4-14.6-52.8-30.4-105.4-27.6v32.3c45.6-4.6,72.1,10.4,98.9,25.7C282.1,569.8,304.5,582.5,338.1,584.1L338.1,584.1z M336.6,587
		c-33.6-1.8-56-14.6-78.1-27.1c-26.7-15.2-53.1-30.2-98.8-25.1l-1.7,0.2v-1.7v-35.3v-1.4l1.4-0.1c54.4-3.2,82.5,13,108.5,28
		c20.4,11.7,39.4,22.7,69,22.5v0l1.5,0h0.1h0.2l1.5,0v0c29.6,0.1,48.4-10.8,68.6-22.6c25.7-14.9,53.5-31.1,107.9-27.9l1.4,0.1v1.4
		v35.3v1.7l-1.7-0.2c-45.7-5-71.8,9.9-98.2,25.1c-21.9,12.6-44.1,25.3-77.7,27.2v0.2l-1.6-0.1l-0.4,0l-0.4,0l-1.6,0.1V587L336.6,587
		z"/>
	<path class="st1" d="M172.3,505.4l6.7,0.3c1.5,0.1,2.6,0.3,3.4,0.5c1,0.4,1.9,1,2.6,1.8c0.7,0.8,1.2,1.8,1.6,3
		c0.3,1.2,0.5,2.6,0.4,4.3c-0.1,1.5-0.3,2.8-0.8,3.8c-0.5,1.3-1.2,2.3-2.1,3.1c-0.7,0.6-1.5,1-2.6,1.3c-0.8,0.2-1.9,0.3-3.2,0.2
		l-6.9-0.4L172.3,505.4L172.3,505.4z M175.8,508.7l-0.6,11.9l2.7,0.1c1,0.1,1.8,0,2.2-0.1c0.6-0.1,1.1-0.3,1.5-0.7
		c0.4-0.3,0.8-0.9,1-1.7c0.3-0.8,0.5-1.9,0.5-3.3c0.1-1.4,0-2.5-0.2-3.2c-0.2-0.8-0.5-1.4-0.9-1.8c-0.4-0.4-1-0.8-1.6-0.9
		c-0.5-0.1-1.5-0.3-3-0.3L175.8,508.7L175.8,508.7z M195.2,507.1l-0.8,6.6c1.3-1.2,2.7-1.6,4.2-1.5c0.8,0.1,1.5,0.3,2.1,0.7
		c0.6,0.4,1,0.8,1.3,1.3c0.3,0.5,0.4,1,0.5,1.6c0,0.6,0,1.4-0.1,2.6l-0.9,7.6l-3.4-0.4l0.8-6.9c0.2-1.4,0.2-2.2,0.1-2.6
		c-0.1-0.4-0.3-0.7-0.6-1c-0.3-0.3-0.7-0.4-1.2-0.5c-0.6-0.1-1.1,0-1.6,0.2c-0.5,0.2-0.9,0.6-1.1,1.1c-0.3,0.5-0.5,1.3-0.6,2.4
		L193,525l-3.4-0.4l2.2-17.9L195.2,507.1L195.2,507.1z M209.3,518.5l-2.9-1.3c0.6-1.2,1.4-1.9,2.4-2.3c1-0.4,2.3-0.4,4,0
		c1.5,0.3,2.6,0.8,3.2,1.3c0.7,0.5,1.1,1.1,1.2,1.7c0.2,0.6,0.1,1.7-0.2,3.1L216,525c-0.3,1.1-0.4,2-0.4,2.5c0,0.6,0.1,1.2,0.2,1.8
		l-3.3-0.8c0-0.2-0.1-0.6-0.1-1.1c0-0.2,0-0.3,0-0.4c-0.7,0.4-1.4,0.7-2.1,0.8c-0.7,0.1-1.5,0.1-2.2-0.1c-1.3-0.3-2.3-0.9-2.9-1.8
		c-0.6-0.9-0.8-1.9-0.5-3c0.2-0.7,0.5-1.3,1-1.8c0.5-0.5,1.1-0.8,1.7-1c0.7-0.2,1.6-0.2,2.9-0.2c1.6,0.1,2.8,0.1,3.5-0.1l0.1-0.3
		c0.2-0.7,0.1-1.1-0.2-1.5c-0.3-0.3-0.8-0.6-1.7-0.8c-0.6-0.1-1.1-0.1-1.5,0C210,517.6,209.6,518,209.3,518.5L209.3,518.5z
		 M213.1,522.3c-0.5,0.1-1.2,0.1-2.2,0.1c-1,0-1.6,0-2,0.2c-0.5,0.2-0.8,0.6-0.9,1c-0.1,0.5,0,0.9,0.2,1.3c0.3,0.4,0.7,0.7,1.2,0.8
		c0.6,0.1,1.2,0.1,1.9-0.2c0.5-0.2,0.8-0.5,1.1-0.9c0.2-0.3,0.3-0.8,0.5-1.6L213.1,522.3L213.1,522.3z M221.6,531.3l-3.3-1.1l4-12.5
		l3.1,1l-0.6,1.8c0.8-0.7,1.5-1.1,2-1.2c0.5-0.1,1-0.1,1.6,0.1c0.8,0.2,1.4,0.7,2,1.3l-2,2.5c-0.4-0.5-0.9-0.9-1.4-1
		c-0.5-0.2-0.9-0.2-1.3,0c-0.4,0.1-0.8,0.5-1.2,1.1c-0.4,0.6-0.9,2-1.6,4.1L221.6,531.3L221.6,531.3z M232.8,520.9l2.9,1.3l-0.7,1.6
		c1.6-0.8,3.1-0.9,4.6-0.2c0.8,0.3,1.4,0.8,1.8,1.4c0.4,0.6,0.7,1.2,0.8,2c0.8-0.4,1.6-0.6,2.3-0.7c0.8-0.1,1.5,0.1,2.2,0.4
		c0.9,0.4,1.5,0.9,2,1.5c0.4,0.6,0.7,1.4,0.7,2.2c0,0.6-0.3,1.5-0.8,2.6l-3.4,7.6l-3.2-1.4l3-6.8c0.5-1.2,0.8-2,0.7-2.4
		c-0.1-0.6-0.4-1-1-1.3c-0.4-0.2-0.9-0.2-1.4-0.2c-0.5,0.1-1,0.4-1.4,0.8c-0.4,0.4-0.9,1.2-1.4,2.4l-2.6,5.7l-3.2-1.4l2.9-6.6
		c0.5-1.2,0.8-1.9,0.8-2.3c0-0.4,0-0.7-0.2-1c-0.2-0.3-0.4-0.5-0.9-0.7c-0.5-0.2-1-0.3-1.5-0.2c-0.5,0.1-1,0.3-1.3,0.8
		c-0.4,0.4-0.8,1.2-1.4,2.3l-2.6,5.8l-3.2-1.4L232.8,520.9L232.8,520.9z M254.7,536l-2.5-2c0.9-0.9,1.9-1.5,3-1.6
		c1-0.1,2.3,0.2,3.8,1.1c1.4,0.7,2.3,1.5,2.8,2.2c0.5,0.7,0.7,1.3,0.7,2c0,0.6-0.4,1.6-1.1,2.9l-2,3.5c-0.6,1-0.9,1.8-1.1,2.3
		c-0.2,0.5-0.3,1.1-0.3,1.8l-3-1.7c0-0.3,0.1-0.6,0.2-1.1c0.1-0.2,0.1-0.3,0.1-0.4c-0.8,0.2-1.6,0.3-2.3,0.2
		c-0.7-0.1-1.4-0.3-2.1-0.7c-1.2-0.7-1.9-1.5-2.3-2.5c-0.3-1-0.2-2,0.3-3c0.4-0.6,0.8-1.1,1.4-1.5c0.6-0.3,1.2-0.5,1.9-0.4
		c0.7,0,1.6,0.3,2.8,0.6c1.6,0.5,2.7,0.8,3.3,0.9l0.2-0.3c0.3-0.6,0.4-1.1,0.3-1.5c-0.1-0.4-0.6-0.8-1.4-1.3c-0.5-0.3-1-0.4-1.4-0.4
		C255.6,535.3,255.2,535.6,254.7,536L254.7,536z M257.4,540.7c-0.5-0.1-1.2-0.3-2.1-0.6c-0.9-0.3-1.6-0.4-1.9-0.4
		c-0.6,0.1-0.9,0.3-1.2,0.7c-0.2,0.4-0.3,0.9-0.1,1.4c0.1,0.5,0.5,0.9,0.9,1.1c0.5,0.3,1.2,0.4,1.9,0.3c0.5-0.1,0.9-0.3,1.3-0.6
		c0.2-0.2,0.5-0.7,0.9-1.4L257.4,540.7L257.4,540.7z M260,549.7l8.5-16l3.1,1.6l-4.5,8.5l5.7-2.2l3.8,2l-6.2,2.1l0.3,9.6l-3.3-1.8
		l-0.1-6.7l-2.2,0.7l-2,3.7L260,549.7L260,549.7z M281.2,556.2l2.8,2.1c-1,0.9-2,1.5-3.2,1.6c-1.2,0.2-2.4-0.1-3.6-0.8
		c-2-1-3.2-2.5-3.5-4.3c-0.2-1.5,0.1-3,0.9-4.6c1-1.9,2.3-3.2,3.8-3.8c1.6-0.6,3.1-0.5,4.7,0.3c1.7,0.9,2.8,2.2,3.2,3.8
		c0.4,1.7,0,3.7-1.2,6l-7.7-3.9c-0.4,0.9-0.6,1.8-0.3,2.5c0.2,0.8,0.7,1.3,1.4,1.7c0.5,0.3,1,0.3,1.4,0.2
		C280.3,557,280.8,556.7,281.2,556.2L281.2,556.2z M283,553.2c0.4-0.9,0.6-1.7,0.4-2.4c-0.2-0.7-0.6-1.2-1.2-1.5
		c-0.7-0.3-1.4-0.4-2-0.1c-0.7,0.3-1.2,0.8-1.7,1.7L283,553.2L283,553.2z M288.2,564.1l-3.2-1.4l5.3-12l2.9,1.3l-0.8,1.7
		c0.9-0.6,1.6-0.9,2.1-1c0.5-0.1,1,0,1.5,0.2c0.7,0.3,1.3,0.8,1.8,1.5l-2.2,2.3c-0.4-0.6-0.8-1-1.3-1.2c-0.4-0.2-0.9-0.3-1.3-0.1
		c-0.4,0.1-0.9,0.4-1.3,1c-0.5,0.6-1.1,1.9-2.1,3.9L288.2,564.1L288.2,564.1z M304.5,556.8l-1,2.6l-2.2-0.9l-2,4.9
		c-0.4,1-0.6,1.6-0.6,1.8c0,0.2,0,0.3,0.1,0.5c0.1,0.2,0.3,0.3,0.5,0.4c0.3,0.1,0.8,0.2,1.4,0.2l-0.7,2.6c-0.9,0-1.8-0.2-2.7-0.6
		c-0.6-0.2-1.1-0.5-1.5-0.9c-0.4-0.4-0.6-0.8-0.7-1.2c-0.1-0.4-0.1-0.9,0.1-1.4c0.1-0.4,0.4-1.2,0.8-2.3l2.1-5.3l-1.5-0.6l1-2.6
		l1.5,0.6l1-2.4l4-0.6l-1.7,4.3L304.5,556.8L304.5,556.8z M306.8,561.9l-2.8-1.5c0.7-1.1,1.6-1.8,2.6-2.2c1-0.3,2.3-0.2,3.9,0.2
		c1.5,0.5,2.5,1,3.1,1.5c0.6,0.6,1,1.2,1.1,1.8c0.1,0.6,0,1.7-0.5,3.1l-1.2,3.8c-0.3,1.1-0.5,1.9-0.6,2.5c-0.1,0.6,0,1.2,0.1,1.9
		l-3.3-1c0-0.2,0-0.6,0-1.1c0-0.2,0-0.4,0-0.4c-0.7,0.4-1.5,0.6-2.2,0.7c-0.7,0.1-1.5,0-2.2-0.2c-1.3-0.4-2.2-1.1-2.7-2
		c-0.5-0.9-0.6-1.9-0.3-3c0.2-0.7,0.6-1.3,1.1-1.7c0.5-0.5,1.1-0.7,1.8-0.8c0.7-0.1,1.7-0.1,2.9,0c1.6,0.2,2.8,0.2,3.5,0.2l0.1-0.3
		c0.2-0.6,0.2-1.1-0.1-1.5c-0.2-0.4-0.8-0.7-1.7-0.9c-0.6-0.2-1.1-0.2-1.5-0.1C307.6,561.1,307.2,561.4,306.8,561.9L306.8,561.9z
		 M310.4,566c-0.5,0-1.2,0-2.2-0.1c-1-0.1-1.6-0.1-2,0c-0.5,0.2-0.9,0.5-1,1c-0.1,0.5-0.1,0.9,0.2,1.4c0.2,0.4,0.6,0.8,1.2,0.9
		c0.6,0.2,1.2,0.2,1.9-0.1c0.5-0.2,0.9-0.5,1.1-0.9c0.2-0.2,0.4-0.8,0.6-1.6L310.4,566L310.4,566z M322,575.5l1.3-18l5.4,0.4
		l2.4,12.5l4.1-12.1l5.5,0.4l-1.3,18l-3.4-0.2l1-14.2l-4.6,13.9L329,576l-2.6-14.4l-1,14.2L322,575.5L322,575.5z M344.5,567.1
		l-3.2-0.2c0.2-1.3,0.7-2.3,1.5-3c0.8-0.7,2-1.2,3.7-1.4c1.5-0.2,2.7-0.1,3.5,0.1c0.8,0.3,1.4,0.7,1.8,1.2c0.4,0.5,0.6,1.5,0.8,3
		l0.5,4c0.1,1.1,0.3,2,0.5,2.5c0.2,0.5,0.4,1.1,0.8,1.7l-3.4,0.4c-0.1-0.2-0.3-0.5-0.4-1c-0.1-0.2-0.1-0.3-0.2-0.4
		c-0.5,0.6-1.1,1.1-1.7,1.5c-0.6,0.4-1.3,0.6-2.1,0.7c-1.3,0.2-2.4-0.1-3.3-0.7c-0.9-0.6-1.4-1.5-1.5-2.6c-0.1-0.7,0-1.4,0.3-2
		c0.3-0.6,0.7-1.1,1.3-1.5c0.6-0.4,1.5-0.8,2.6-1.1c1.6-0.5,2.6-0.9,3.2-1.3l0-0.3c-0.1-0.7-0.3-1.1-0.7-1.3c-0.4-0.2-1-0.3-1.9-0.2
		c-0.6,0.1-1.1,0.2-1.4,0.5C344.9,566,344.7,566.4,344.5,567.1L344.5,567.1z M349.5,569.3c-0.4,0.2-1.1,0.5-2,0.8
		c-0.9,0.3-1.5,0.6-1.8,0.8c-0.4,0.4-0.6,0.8-0.5,1.3c0.1,0.5,0.3,0.9,0.7,1.2c0.4,0.3,0.9,0.4,1.4,0.4c0.6-0.1,1.2-0.4,1.7-0.8
		c0.4-0.4,0.6-0.8,0.7-1.2c0.1-0.3,0-0.9-0.1-1.7L349.5,569.3L349.5,569.3z M360.3,573.7l-3.4,0.8l-2.9-12.8l3.1-0.7l0.4,1.8
		c0.3-1,0.7-1.7,1.1-2c0.4-0.4,0.8-0.6,1.4-0.8c0.8-0.2,1.6-0.1,2.4,0.1l-0.4,3.2c-0.6-0.2-1.2-0.3-1.7-0.2
		c-0.5,0.1-0.8,0.3-1.1,0.7c-0.3,0.3-0.4,0.9-0.4,1.6c0,0.7,0.2,2.2,0.7,4.3L360.3,573.7L360.3,573.7z M366.6,573l3.9-0.8
		c0.2,0.4,0.4,0.7,0.7,0.8c0.4,0.1,0.9,0.1,1.6-0.1c0.9-0.3,1.5-0.6,1.8-1c0.2-0.3,0.4-0.6,0.4-1c0-0.3-0.1-0.8-0.3-1.6l-0.6-1.8
		c-0.5,1.7-1.6,2.7-3.1,3.2c-1.7,0.5-3.2,0.3-4.7-0.8c-1.1-0.9-2-2.1-2.5-3.8c-0.7-2.1-0.7-3.8-0.1-5.3c0.6-1.4,1.7-2.4,3.2-2.9
		c1.5-0.5,3-0.2,4.5,0.8l-0.6-1.7l3.1-1l3.6,11.2c0.5,1.5,0.7,2.6,0.7,3.4c0,0.8-0.2,1.5-0.5,2.1c-0.3,0.5-0.8,1.1-1.4,1.5
		c-0.6,0.5-1.5,0.9-2.7,1.3c-2.1,0.7-3.7,0.8-4.8,0.4c-1.1-0.4-1.9-1.2-2.2-2.3C366.7,573.2,366.6,573.1,366.6,573L366.6,573z
		 M367.1,564.7c0.4,1.3,1,2.2,1.7,2.6c0.7,0.4,1.4,0.6,2.2,0.3c0.8-0.3,1.4-0.8,1.7-1.6c0.3-0.8,0.3-1.8-0.1-3.1
		c-0.4-1.3-1-2.2-1.7-2.6c-0.7-0.4-1.5-0.5-2.3-0.3c-0.8,0.3-1.3,0.8-1.7,1.5C366.7,562.4,366.7,563.4,367.1,564.7L367.1,564.7z
		 M379.4,557.5l-3.1,0.8c-0.2-1.3-0.1-2.4,0.5-3.3c0.5-0.9,1.6-1.7,3.1-2.4c1.4-0.7,2.5-1,3.4-1c0.8,0,1.5,0.2,2,0.6
		c0.5,0.4,1.1,1.2,1.7,2.6l1.7,3.7c0.5,1,0.9,1.8,1.2,2.2c0.3,0.4,0.8,0.9,1.3,1.3l-3.1,1.4c-0.2-0.2-0.4-0.4-0.7-0.8
		c-0.1-0.2-0.2-0.3-0.3-0.3c-0.3,0.8-0.7,1.4-1.2,2c-0.5,0.5-1.1,1-1.8,1.3c-1.2,0.6-2.3,0.7-3.3,0.4c-1-0.3-1.8-1-2.2-2
		c-0.3-0.7-0.4-1.3-0.4-2c0.1-0.7,0.3-1.3,0.8-1.8c0.4-0.5,1.2-1.2,2.2-1.9c1.3-1,2.2-1.7,2.7-2.2l-0.1-0.3c-0.3-0.6-0.6-1-1-1.1
		c-0.4-0.1-1,0-1.9,0.4c-0.6,0.3-1,0.6-1.2,1C379.4,556.3,379.4,556.8,379.4,557.5L379.4,557.5z M384.8,558
		c-0.3,0.3-0.9,0.8-1.7,1.4c-0.8,0.6-1.3,1-1.5,1.3c-0.3,0.5-0.3,0.9-0.1,1.4c0.2,0.4,0.5,0.7,1,0.9c0.5,0.2,1,0.1,1.5-0.1
		c0.6-0.3,1-0.7,1.4-1.3c0.3-0.5,0.3-0.9,0.3-1.4c0-0.3-0.2-0.8-0.6-1.6L384.8,558L384.8,558z M399.9,557.5l-9.3-15.5l6.6-3.9
		c1.7-1,2.9-1.6,3.9-1.7c0.9-0.2,1.8-0.1,2.7,0.4c0.9,0.4,1.6,1.1,2.1,2c0.7,1.2,0.9,2.3,0.7,3.5c-0.2,1.2-1,2.2-2.2,3.3
		c0.9,0,1.7,0.1,2.5,0.3c0.7,0.2,1.8,0.7,3.3,1.5l3.7,1.9l-3.7,2.2l-4.3-2c-1.5-0.7-2.5-1.1-3-1.3c-0.5-0.1-0.9-0.2-1.3-0.1
		c-0.4,0.1-1,0.3-1.7,0.8l-0.6,0.4l3.9,6.5L399.9,557.5L399.9,557.5z M397.7,546.7l2.3-1.4c1.5-0.9,2.4-1.5,2.7-1.9
		c0.3-0.4,0.4-0.8,0.5-1.2c0-0.4-0.1-0.9-0.4-1.3c-0.3-0.5-0.7-0.9-1.2-1c-0.5-0.2-1-0.1-1.5,0.1c-0.3,0.1-1,0.6-2.3,1.3l-2.4,1.5
		L397.7,546.7L397.7,546.7z M413.4,538.8l-3,1c-0.3-1.3-0.2-2.4,0.3-3.3c0.5-1,1.5-1.8,3-2.6c1.4-0.7,2.5-1.1,3.3-1.1
		c0.8,0,1.5,0.1,2.1,0.5c0.5,0.4,1.1,1.2,1.9,2.5l1.9,3.6c0.5,1,1,1.7,1.3,2.2c0.3,0.4,0.8,0.8,1.4,1.3l-3,1.6
		c-0.2-0.2-0.4-0.4-0.8-0.8c-0.1-0.2-0.3-0.3-0.3-0.3c-0.3,0.8-0.6,1.5-1.1,2c-0.5,0.6-1,1-1.7,1.4c-1.2,0.6-2.3,0.8-3.3,0.5
		c-1-0.3-1.8-0.9-2.3-1.9c-0.3-0.6-0.5-1.3-0.5-2c0-0.7,0.3-1.3,0.7-1.9c0.4-0.6,1.1-1.2,2.1-2c1.3-1,2.1-1.8,2.6-2.3l-0.2-0.3
		c-0.3-0.6-0.7-0.9-1.1-1c-0.4-0.1-1,0.1-1.8,0.5c-0.5,0.3-0.9,0.6-1.1,1C413.3,537.6,413.3,538.1,413.4,538.8L413.4,538.8z
		 M418.8,539.1c-0.3,0.3-0.9,0.8-1.6,1.5c-0.8,0.6-1.2,1.1-1.4,1.4c-0.3,0.5-0.3,1,0,1.4c0.2,0.4,0.6,0.7,1.1,0.9
		c0.5,0.1,1,0.1,1.5-0.2c0.6-0.3,1-0.8,1.3-1.4c0.2-0.5,0.3-0.9,0.2-1.4c-0.1-0.3-0.3-0.8-0.7-1.5L418.8,539.1L418.8,539.1z
		 M427.8,541.4l-7.4-16.5l3.2-1.4l3.9,8.8l1.8-5.9l3.9-1.7l-2.1,6.2l7.8,5.6l-3.4,1.5l-5.4-4l-0.8,2.2l1.7,3.8L427.8,541.4
		L427.8,541.4z M438.1,532.5l3.1-1.7c0.4,0.6,0.8,1,1.4,1.1c0.5,0.2,1.2,0.1,2-0.1c0.8-0.3,1.4-0.7,1.7-1.2c0.2-0.3,0.2-0.7,0.1-1
		c-0.1-0.3-0.2-0.4-0.5-0.5c-0.2-0.1-0.6-0.1-1.2,0c-2.8,0.4-4.7,0.4-5.6,0.2c-1.2-0.3-2-1.1-2.5-2.2c-0.4-1.1-0.3-2.1,0.3-3.1
		c0.6-1,1.8-1.9,3.5-2.5c1.7-0.6,3-0.8,4.1-0.5c1,0.3,1.9,0.8,2.6,1.8l-2.9,1.7c-0.3-0.4-0.7-0.7-1.2-0.8c-0.5-0.1-1-0.1-1.7,0.2
		c-0.9,0.3-1.4,0.7-1.7,1c-0.2,0.3-0.2,0.5-0.1,0.8c0.1,0.2,0.3,0.4,0.5,0.5c0.4,0.1,1.5,0.1,3.4-0.2c1.9-0.2,3.3-0.2,4.2,0.1
		c0.9,0.3,1.5,1,1.9,2c0.4,1.1,0.3,2.3-0.4,3.4c-0.6,1.1-1.9,2.1-3.7,2.7c-1.7,0.6-3.1,0.7-4.3,0.4
		C439.8,534.3,438.8,533.6,438.1,532.5L438.1,532.5z M448.9,518.5l3.6-0.9l5.4,8.2l0.5-9.8l3.5-0.9l-1.2,13.4l-0.2,2.4
		c-0.1,0.8-0.2,1.5-0.4,1.9c-0.2,0.4-0.4,0.8-0.7,1.2c-0.3,0.3-0.6,0.6-1.1,0.9c-0.5,0.3-1,0.5-1.7,0.7c-0.6,0.2-1.3,0.3-2,0.3
		l-1-2.5c0.6,0,1-0.1,1.5-0.2c0.8-0.2,1.3-0.6,1.5-1.2c0.2-0.6,0.4-1.2,0.4-2L448.9,518.5L448.9,518.5z M468.4,517.5l-3.2,0
		c0.1-1.3,0.6-2.3,1.3-3.1c0.8-0.7,2-1.3,3.6-1.6c1.5-0.3,2.7-0.3,3.5-0.1c0.8,0.2,1.4,0.6,1.8,1.1c0.4,0.5,0.7,1.5,1,3l0.7,4
		c0.2,1.1,0.4,2,0.6,2.5c0.2,0.5,0.5,1.1,0.9,1.6l-3.4,0.6c-0.1-0.2-0.3-0.5-0.5-0.9c-0.1-0.2-0.2-0.3-0.2-0.4
		c-0.5,0.7-1,1.2-1.6,1.6c-0.6,0.4-1.3,0.7-2,0.8c-1.3,0.2-2.4,0.1-3.3-0.5c-0.9-0.6-1.4-1.4-1.6-2.5c-0.1-0.7-0.1-1.4,0.2-2
		c0.3-0.6,0.7-1.2,1.2-1.6c0.6-0.4,1.4-0.8,2.6-1.3c1.5-0.6,2.6-1,3.2-1.4l-0.1-0.3c-0.1-0.7-0.4-1.1-0.7-1.3
		c-0.4-0.2-1-0.3-1.9-0.1c-0.6,0.1-1.1,0.3-1.4,0.6C468.7,516.3,468.5,516.8,468.4,517.5L468.4,517.5z M473.4,519.4
		c-0.4,0.2-1.1,0.5-2,0.9c-0.9,0.4-1.5,0.7-1.7,0.9c-0.4,0.4-0.5,0.8-0.5,1.3c0.1,0.5,0.3,0.9,0.8,1.2c0.4,0.3,0.9,0.4,1.5,0.3
		c0.6-0.1,1.2-0.4,1.7-0.9c0.4-0.4,0.6-0.8,0.6-1.3c0-0.3,0-0.9-0.2-1.7L473.4,519.4L473.4,519.4z M481.1,524.5l-1.9-18l3.4-0.4
		l1,9.5l3.6-5l4.2-0.4l-4,5.2l5.6,7.8l-3.7,0.4l-3.9-5.5l-1.4,1.8l0.4,4.2L481.1,524.5L481.1,524.5z M497.8,514.3l-3.1-0.6
		c0.4-1.3,1-2.2,1.8-2.8c0.9-0.6,2.1-0.9,3.8-0.9c1.5,0,2.7,0.2,3.4,0.6c0.8,0.4,1.3,0.8,1.6,1.4c0.3,0.6,0.5,1.6,0.5,3.1l0,4
		c0,1.1,0.1,2,0.2,2.5c0.1,0.5,0.3,1.1,0.6,1.8h-3.4c-0.1-0.2-0.2-0.6-0.3-1c-0.1-0.2-0.1-0.3-0.1-0.4c-0.6,0.6-1.2,1-1.9,1.3
		c-0.7,0.3-1.4,0.4-2.2,0.4c-1.3,0-2.4-0.4-3.2-1.1c-0.8-0.7-1.2-1.6-1.2-2.8c0-0.7,0.2-1.4,0.5-2c0.4-0.6,0.8-1,1.5-1.3
		c0.6-0.3,1.6-0.6,2.8-0.8c1.6-0.3,2.7-0.6,3.4-0.8v-0.3c0-0.7-0.2-1.1-0.5-1.4c-0.3-0.3-0.9-0.4-1.9-0.4c-0.6,0-1.1,0.1-1.4,0.4
		C498.3,513.3,498.1,513.7,497.8,514.3L497.8,514.3z M502.5,517.1c-0.4,0.1-1.1,0.3-2.1,0.5c-1,0.2-1.6,0.4-1.9,0.6
		c-0.4,0.3-0.7,0.7-0.7,1.2s0.2,0.9,0.5,1.3c0.4,0.4,0.8,0.5,1.4,0.5c0.6,0,1.2-0.2,1.8-0.6c0.4-0.3,0.7-0.7,0.8-1.2
		c0.1-0.3,0.1-0.9,0.1-1.7V517.1L502.5,517.1z"/>
	<path class="st1" d="M290.1,253.4l-8-11l3.6-2.6c1.3-1,2.3-1.6,2.8-1.7c0.7-0.3,1.5-0.3,2.4-0.1c0.8,0.2,1.6,0.8,2.2,1.7
		c0.5,0.7,0.8,1.3,0.9,2c0.1,0.6,0,1.2-0.1,1.8c-0.2,0.5-0.4,1-0.8,1.4c-0.5,0.5-1.2,1.1-2.2,1.8l-1.4,1l3,4.1L290.1,253.4
		L290.1,253.4z M285.8,242.7l2.3,3.1l1.2-0.9c0.9-0.6,1.4-1.1,1.6-1.4c0.2-0.3,0.3-0.7,0.3-1c0-0.4-0.1-0.7-0.4-1
		c-0.3-0.4-0.6-0.6-1.1-0.7c-0.4-0.1-0.8,0-1.2,0.2c-0.3,0.1-0.9,0.5-1.6,1.1L285.8,242.7L285.8,242.7z M305.4,235.4
		c-0.4-1.3-0.6-2.5-0.5-3.5c0.1-0.8,0.3-1.5,0.6-2.2c0.3-0.7,0.8-1.2,1.3-1.7c0.7-0.6,1.6-1.1,2.6-1.4c1.9-0.6,3.6-0.5,5.1,0.3
		c1.5,0.8,2.6,2.3,3.3,4.4c0.7,2.1,0.6,3.9-0.1,5.4c-0.8,1.5-2.1,2.6-4,3.2c-1.9,0.6-3.6,0.5-5.1-0.3
		C307.2,238.9,306.1,237.5,305.4,235.4L305.4,235.4z M308.1,234.5c0.5,1.5,1.2,2.5,2.1,3c0.9,0.5,1.9,0.6,2.9,0.3
		c1-0.3,1.8-1,2.2-1.9c0.4-1,0.4-2.2-0.1-3.7c-0.5-1.5-1.2-2.5-2-3c-0.9-0.5-1.9-0.6-2.9-0.2c-1.1,0.3-1.8,1-2.2,1.9
		C307.6,231.8,307.6,233,308.1,234.5L308.1,234.5z M330.8,235.9l-0.5-13.4l2.7-0.1l0.4,11.1l6.8-0.2l0.1,2.3L330.8,235.9
		L330.8,235.9z M350.7,236.8l2.4-13.3l2.7,0.5l-2.4,13.3L350.7,236.8L350.7,236.8z M365.4,236.4l2.5,0.9c-0.2,0.9-0.2,1.6,0.1,2.2
		c0.3,0.6,0.8,1.1,1.5,1.4c0.8,0.4,1.5,0.5,2,0.3c0.6-0.1,0.9-0.4,1.2-0.9c0.1-0.3,0.2-0.6,0.1-0.9c-0.1-0.3-0.3-0.6-0.6-1
		c-0.2-0.2-0.8-0.7-1.7-1.5c-1.2-1-1.9-1.8-2.2-2.5c-0.4-1-0.4-2,0-3c0.3-0.6,0.7-1.1,1.3-1.5c0.6-0.4,1.3-0.5,2.1-0.5
		c0.8,0,1.7,0.3,2.6,0.7c1.5,0.7,2.5,1.6,3,2.6c0.5,1,0.4,2.1,0,3.3l-2.5-1c0.2-0.7,0.2-1.2,0-1.7c-0.2-0.4-0.7-0.8-1.4-1.1
		c-0.7-0.3-1.4-0.5-1.9-0.4c-0.4,0.1-0.6,0.3-0.8,0.6c-0.1,0.3-0.1,0.6,0,0.9c0.2,0.4,0.8,1,1.9,1.9c1.1,0.8,1.8,1.6,2.3,2.1
		c0.4,0.6,0.7,1.2,0.8,1.9c0.1,0.7-0.1,1.4-0.4,2.2c-0.3,0.7-0.8,1.3-1.5,1.7c-0.7,0.4-1.4,0.6-2.3,0.6c-0.9,0-1.8-0.3-2.9-0.8
		c-1.5-0.7-2.6-1.6-3.1-2.7C364.9,239.2,364.9,237.9,365.4,236.4L365.4,236.4z M382.4,251.5l8.3-10.7l2.2,1.7l-8.3,10.7L382.4,251.5
		L382.4,251.5z"/>
	<path class="st1" d="M273.9,360.2l9-7.8l1.6,1.8l-7.5,6.5l4,4.6l-1.5,1.3L273.9,360.2L273.9,360.2z M292,376.8l-2.1-1.6l0.9-2.8
		l-3.8-3l-2.5,1.6l-2-1.6l11.1-6.6l2,1.6L292,376.8L292,376.8z M291.4,370.3l1.4-4.5l-4,2.5L291.4,370.3L291.4,370.3z M296.2,379.4
		l5.4-10.6l2.2,1.1l-4.5,8.8l5.4,2.7l-0.9,1.8L296.2,379.4L296.2,379.4z M312,373.6l2.3,0.7l-1.8,6.3c-0.3,1-0.4,1.7-0.5,2
		c0,0.5,0.1,1,0.4,1.3c0.3,0.4,0.8,0.7,1.4,0.9c0.7,0.2,1.2,0.2,1.6,0c0.4-0.2,0.7-0.5,0.9-0.8c0.2-0.4,0.4-1,0.7-1.9l1.8-6.4
		l2.3,0.7l-1.7,6.1c-0.4,1.4-0.7,2.4-1,2.9c-0.3,0.5-0.7,1-1.1,1.2c-0.4,0.3-1,0.5-1.6,0.6c-0.6,0.1-1.4,0-2.3-0.3
		c-1.1-0.3-1.9-0.7-2.4-1.1c-0.5-0.4-0.9-0.9-1.1-1.4c-0.2-0.5-0.3-1-0.3-1.5c0-0.7,0.2-1.7,0.6-3L312,373.6L312,373.6z M332,389.9
		l0.2-11.9l2.4,0l-0.2,9.9l6,0.1l0,2L332,389.9L332,389.9z M345.6,389.4l-1.7-11.9l2.4-0.3L348,389L345.6,389.4L345.6,389.4z
		 M353.8,388.3l-3.5-11.5l2.3-0.7l7.1,6.2l-2.3-7.7l2.2-0.7l3.5,11.5l-2.3,0.7l-6.9-6.1l2.3,7.5L353.8,388.3L353.8,388.3z
		 M371,382.2l-4.2-9.1l-3.2,1.5l-0.9-1.8l8.7-4l0.9,1.8l-3.2,1.5l4.2,9.1L371,382.2L371,382.2z M388.6,371.2l-2.1,1.6l-2.5-1.6
		l-3.9,2.8l0.8,2.8l-2.1,1.5l-3.3-12.5l2.1-1.5L388.6,371.2L388.6,371.2z M382.2,369.9l-4-2.6l1.3,4.6L382.2,369.9L382.2,369.9z
		 M388.8,365.7l1.4-1.9c0.7,0.4,1.3,0.6,1.9,0.6c0.6-0.1,1.1-0.4,1.6-0.9c0.5-0.6,0.8-1.1,0.8-1.6c0-0.5-0.1-0.9-0.4-1.2
		c-0.2-0.2-0.4-0.3-0.7-0.3c-0.3,0-0.6,0.1-1,0.3c-0.3,0.1-0.8,0.5-1.7,1.1c-1.1,0.7-2,1.1-2.7,1.2c-1,0.1-1.8-0.2-2.5-0.8
		c-0.5-0.4-0.8-0.9-0.9-1.6c-0.2-0.6-0.1-1.3,0.1-1.9c0.2-0.7,0.7-1.3,1.3-2c1-1.1,2-1.7,3.1-1.8c1-0.1,1.9,0.2,2.8,0.9l-1.6,1.8
		c-0.5-0.3-1-0.5-1.4-0.4c-0.4,0.1-0.9,0.3-1.3,0.9c-0.5,0.5-0.8,1-0.8,1.5c0,0.3,0.1,0.6,0.3,0.8c0.2,0.2,0.5,0.3,0.8,0.2
		c0.4-0.1,1.1-0.4,2.1-1.1c1-0.7,1.8-1.1,2.4-1.3c0.6-0.2,1.2-0.3,1.8-0.1c0.6,0.1,1.2,0.4,1.7,1c0.5,0.5,0.8,1.1,1,1.7
		c0.2,0.7,0.1,1.4-0.1,2.1c-0.3,0.7-0.8,1.5-1.5,2.2c-1,1.1-2.1,1.7-3.2,1.8C391,366.9,389.9,366.5,388.8,365.7L388.8,365.7z"/>
	<polygon class="st0" points="345,128 363.2,129.5 349.3,141.4 353.5,159.2 337.9,149.7 322.4,159.2 326.5,141.4 312.7,129.5 
		330.9,128 337.9,111.2 345,128 	"/>
	<polygon class="st4" points="343.5,129.8 357.8,131 346.9,140.3 350.2,154.3 337.9,146.8 325.7,154.3 329,140.3 318.1,131 
		332.4,129.8 337.9,116.5 343.5,129.8 	"/>
	<polygon class="st4" points="342.8,130.7 355.4,131.7 345.8,140 348.8,152.3 337.9,145.7 327.1,152.3 330,140 320.4,131.7 
		333,130.7 337.9,119 342.8,130.7 	"/>
	<polygon class="st0" points="337.9,124.7 341.2,132.5 349.7,133.2 343.3,138.8 345.2,147.1 337.9,142.7 330.6,147.1 332.6,138.8 
		326.1,133.2 334.6,132.5 337.9,124.7 	"/>
	<polygon class="st0" points="288.2,152.6 306.4,154.1 292.6,166 296.8,183.8 281.2,174.3 265.6,183.8 269.8,166 256,154.1 
		274.1,152.6 281.2,135.8 288.2,152.6 	"/>
	<polygon class="st4" points="286.7,154.4 301,155.5 290.1,164.9 293.4,178.9 281.2,171.4 268.9,178.9 272.2,164.9 261.3,155.5 
		275.6,154.4 281.2,141.1 286.7,154.4 	"/>
	<polygon class="st4" points="286.1,155.3 298.7,156.3 289.1,164.6 292,176.9 281.2,170.3 270.3,176.9 273.3,164.6 263.7,156.3 
		276.3,155.3 281.2,143.6 286.1,155.3 	"/>
	<polygon class="st0" points="281.2,149.3 284.5,157.1 293,157.8 286.5,163.4 288.5,171.7 281.2,167.3 273.9,171.7 275.8,163.4 
		269.4,157.8 277.9,157.1 281.2,149.3 	"/>
	<polygon class="st0" points="401,152.6 419.1,154.1 405.3,166 409.5,183.8 393.9,174.3 378.3,183.8 382.5,166 368.7,154.1 
		386.9,152.6 393.9,135.8 401,152.6 	"/>
	<polygon class="st4" points="399.5,154.4 413.8,155.5 402.9,164.9 406.2,178.9 393.9,171.4 381.7,178.9 385,164.9 374.1,155.5 
		388.4,154.4 393.9,141.1 399.5,154.4 	"/>
	<polygon class="st4" points="398.8,155.3 411.4,156.3 401.8,164.6 404.8,176.9 393.9,170.3 383.1,176.9 386,164.6 376.4,156.3 
		389,155.3 393.9,143.6 398.8,155.3 	"/>
	<polygon class="st0" points="393.9,149.3 397.2,157.1 405.7,157.8 399.3,163.4 401.2,171.7 393.9,167.3 386.6,171.7 388.6,163.4 
		382.1,157.8 390.6,157.1 393.9,149.3 	"/>
</g>
</svg>
