<?xml version="1.0" encoding="utf-8"?>
<!-- Generator: Adobe Illustrator 25.2.0, SVG Export Plug-In . SVG Version: 6.00 Build 0)  -->
<svg version="1.1" id="Layer_1" xmlns="http://www.w3.org/2000/svg" xmlns:xlink="http://www.w3.org/1999/xlink" x="0px" y="0px"
	 viewBox="0 0 24 24" style="enable-background:new 0 0 24 24;" xml:space="preserve">
<style type="text/css">
	.st0{fill:#DC2626;}
	.st1{fill:#FFFFFF;}
	.st2{fill:#991B1B;}
</style>
<g>
	<path class="st0" d="M20,10c0,6.4-8,12-8,12c-0.3-0.2-8-5.6-8-12c0-4.4,3.6-8,8-8S20,5.6,20,10z"/>
	<path class="st1" d="M12,2c4.4,0,8,3.6,8,8c0,6.4-8,12-8,12c-0.3-0.2-8-5.6-8-12C4,5.6,7.6,2,12,2 M12,1.8c-4.5,0-8.2,3.7-8.2,8.2
		c0,6.1,6.7,11.2,8.1,12.2l0.1,0.1l0.2-0.1c0.3-0.2,8.1-5.7,8.1-12.2C20.2,5.5,16.5,1.8,12,1.8L12,1.8z"/>
</g>
<path class="st2" d="M12.7,7.1l0.7,2.1c0,0.1,0.2,0.2,0.3,0.1l2-0.9c0.2-0.1,0.4,0.1,0.3,0.3l-0.9,2c-0.1,0.1,0,0.3,0.1,0.3l2.1,0.7
	c0.2,0.1,0.2,0.4,0,0.5L15.2,13c-0.1,0-0.2,0.2-0.1,0.3l0.9,2c0.1,0.2-0.1,0.4-0.3,0.3l-2-0.9c-0.1-0.1-0.3,0-0.3,0.1l-0.7,2.1
	c-0.1,0.2-0.4,0.2-0.5,0l-0.7-2.1c0-0.1-0.2-0.2-0.3-0.1l-2,0.9c-0.2,0.1-0.4-0.1-0.3-0.3l0.9-2c0.1-0.1,0-0.3-0.1-0.3l-2.1-0.7
	c-0.2-0.1-0.2-0.4,0-0.5L9.6,11c0.1,0,0.2-0.2,0.1-0.3l-0.9-2C8.7,8.5,8.9,8.3,9.1,8.4l2,0.9c0.1,0.1,0.3,0,0.3-0.1l0.7-2.1
	C12.3,6.9,12.6,6.9,12.7,7.1z"/>
<path class="st1" d="M12.2,6.2L13,8.3c0,0.1,0.2,0.2,0.3,0.1l2-0.9c0.2-0.1,0.4,0.1,0.3,0.3l-0.9,2c-0.1,0.1,0,0.3,0.1,0.3l2.1,0.7
	c0.2,0.1,0.2,0.4,0,0.5l-2.1,0.7c-0.1,0-0.2,0.2-0.1,0.3l0.9,2c0.1,0.2-0.1,0.4-0.3,0.3l-2-0.9c-0.1-0.1-0.3,0-0.3,0.1L12.2,16
	c-0.1,0.2-0.4,0.2-0.5,0L11,13.9c0-0.1-0.2-0.2-0.3-0.1l-2,0.9c-0.2,0.1-0.4-0.1-0.3-0.3l0.9-2c0.1-0.1,0-0.3-0.1-0.3l-2.1-0.7
	c-0.2-0.1-0.2-0.4,0-0.5l2.1-0.7c0.1,0,0.2-0.2,0.1-0.3l-0.9-2C8.3,7.6,8.5,7.4,8.7,7.5l2,0.9c0.1,0.1,0.3,0,0.3-0.1l0.7-2.1
	C11.8,6,12.2,6,12.2,6.2z"/>
</svg>
