<?xml version="1.0" encoding="utf-8"?>
<!-- Generator: Adobe Illustrator 25.2.0, SVG Export Plug-In . SVG Version: 6.00 Build 0)  -->
<svg version="1.1" id="Layer_1" xmlns="http://www.w3.org/2000/svg" xmlns:xlink="http://www.w3.org/1999/xlink" x="0px" y="0px"
	 viewBox="0 0 24 24" style="enable-background:new 0 0 24 24;" xml:space="preserve">
<style type="text/css">
	.st0{fill:#2563EB;}
	.st1{fill:#FFFFFF;}
</style>
<g>
	<path class="st0" d="M20,10c0,6.4-8,12-8,12c-0.3-0.2-8-5.6-8-12c0-4.4,3.6-8,8-8S20,5.6,20,10z"/>
	<path class="st1" d="M12,2c4.4,0,8,3.6,8,8c0,6.4-8,12-8,12c-0.3-0.2-8-5.6-8-12C4,5.6,7.6,2,12,2 M12,1.8c-4.5,0-8.2,3.7-8.2,8.2
		c0,6.1,6.7,11.2,8.1,12.2l0.1,0.1l0.2-0.1c0.3-0.2,8.1-5.7,8.1-12.2C20.2,5.5,16.5,1.8,12,1.8L12,1.8z"/>
</g>
<path class="st1" d="M12.1,4.4c-3.1,0-5.6,2.5-5.6,5.6s2.5,5.6,5.6,5.6s5.6-2.5,5.6-5.6S15.2,4.4,12.1,4.4z M14.9,10.6h-2.2v2.2
	h-1.1v-2.2H9.2V9.5h2.2V7.3h1.1v2.3h2.2V10.6z"/>
</svg>
