<?xml version="1.0" encoding="utf-8"?>
<!-- Generator: Adobe Illustrator 25.2.0, SVG Export Plug-In . SVG Version: 6.00 Build 0)  -->
<svg version="1.1" id="Layer_1" xmlns="http://www.w3.org/2000/svg" xmlns:xlink="http://www.w3.org/1999/xlink" x="0px" y="0px"
	 viewBox="0 0 384 512" style="enable-background:new 0 0 384 512;" xml:space="preserve">
<style type="text/css">
	.st0{opacity:0.38;}
	.st1{clip-path:url(#SVGID_2_);fill:#991B1B;}
	.st2{fill:#FFFFFF;}
	.st3{fill:#DC2626;}
</style>
<g class="st0">
	
		<image style="overflow:visible;enable-background:new    ;" width="233" height="224" xlink:href="../../old/img/logo/A1DBD521.png"  transform="matrix(1 0 0 1 168 313)">
	</image>
</g>
<g>
	<g>
		<defs>
			<path id="SVGID_1_" d="M192,509.2c-8.7,0-17-4-22.5-10.9c-18.1-22.2-64.3-80.8-103.6-144.7C23.2,284,1.5,229.7,1.5,192
				C1.5,87,87,1.5,192,1.5S382.5,87,382.5,192c0,86.7-117.5,243.1-168,306.3C209,505.2,200.7,509.2,192,509.2z"/>
		</defs>
		<use xlink:href="#SVGID_1_"  style="overflow:visible;fill:#DC2626;"/>
		<clipPath id="SVGID_2_">
			<use xlink:href="#SVGID_1_"  style="overflow:visible;"/>
		</clipPath>
		<circle class="st1" cx="192" cy="190.7" r="190.7"/>
	</g>
	<path class="st2" d="M192,3c25.5,0,50.3,5,73.5,14.9c22.5,9.5,42.7,23.2,60.1,40.5c17.4,17.4,31,37.6,40.5,60.1
		c9.9,23.3,14.9,48,14.9,73.5c0,37.3-21.7,91.3-64.5,160.7c-34.5,56-75.2,109.5-103.2,144.6c-5.3,6.6-13.1,10.4-21.4,10.4
		s-16.1-3.8-21.4-10.4c-18-22.2-64.2-80.7-103.5-144.6C24.6,283.5,3,229.4,3,192c0-25.5,5-50.3,14.9-73.5
		C27.4,95.9,41,75.7,58.4,58.4C75.8,41,96,27.4,118.5,17.9C141.7,8,166.5,3,192,3 M192,0C86,0,0,86,0,192
		c0,87.4,116.1,243,168.3,307.2c6.1,7.6,14.9,11.5,23.7,11.5s17.6-3.8,23.7-11.5C267,435,384,279.4,384,192C384,86,298,0,192,0
		L192,0z"/>
</g>
<path class="st2" d="M197.7,107.7l33.6-37.2c4.8-5.3,13.7-1.7,13.3,5.5l-2.6,50.1c-0.2,4.5,3.5,8.3,8,8l50.1-2.6
	c7.2-0.4,10.9,8.5,5.5,13.3l-37.2,33.6c-3.4,3-3.4,8.3,0,11.4l37.2,33.6c5.3,4.8,1.7,13.7-5.5,13.3l-50.1-2.6c-4.5-0.2-8.3,3.5-8,8
	l2.6,50.1c0.4,7.2-8.5,10.9-13.3,5.5l-33.6-37.2c-3-3.4-8.3-3.4-11.4,0L152.7,298c-4.8,5.3-13.7,1.7-13.3-5.5l2.6-50.1
	c0.2-4.5-3.5-8.3-8-8l-50.1,2.6c-7.2,0.4-10.9-8.5-5.5-13.3l37.2-33.6c3.4-3,3.4-8.3,0-11.4l-37.2-33.6c-5.3-4.8-1.7-13.7,5.5-13.3
	l50.1,2.6c4.5,0.2,8.3-3.5,8-8L139.4,76c-0.4-7.2,8.5-10.9,13.3-5.5l33.6,37.2C189.4,111.1,194.6,111.1,197.7,107.7z"/>
<g>
	<path class="st3" d="M188.7,202.2c-0.9-0.9-1.5-2.1-1.6-3.8l-4.8-50.5l-0.1-1.3c0-2.7,0.9-4.8,2.8-6.4c1.9-1.6,4.2-2.4,7.1-2.4
		c3,0,5.5,0.9,7.4,2.8c1.9,1.9,2.7,4.4,2.3,7.5l-4.8,50.4c-0.2,1.6-0.7,2.9-1.6,3.8c-0.9,0.9-2,1.3-3.3,1.3
		C190.7,203.5,189.6,203,188.7,202.2z M185.1,227.9c-1.8-1.9-2.7-4.2-2.7-7c0-2.8,0.9-5.1,2.7-7c1.8-1.9,4.1-2.8,6.9-2.8
		c2.8,0,5.1,0.9,6.9,2.8c1.8,1.9,2.7,4.2,2.7,7c0,2.8-0.9,5.1-2.7,7c-1.8,1.9-4.1,2.8-6.9,2.8C189.3,230.7,187,229.8,185.1,227.9z"
		/>
</g>
</svg>
